{
.appVersion = "1256";
copyright = "Copyright (C) 2019 Xiangdong Zeng";
date = "2019-08-21 03:57:35 +0000";
designer = "Xiangdong Zeng";
familyName = Aluminium;
featurePrefixes = (
{
code = "languagesystem DFLT dflt;\012";
name = Languagesystems;
}
);
features = (
{
code = "sub a by a.var;\012sub f by f.var;\012sub j by j.var;\012sub jdotless by jdotless.var;\012sub r by r.var;\012sub y by y.var;\012sub f_i by f_i.var;\012sub f_j by f_j.var;\012";
name = ss01;
},
{
code = "sub f f by f_f;\012sub f i by f_i;\012sub f j by f_j;\012sub f l by f_l;\012sub f f i by f_f_i;\012sub f f j by f_f_j;\012sub f f l by f_f_l;\012sub f.var i by f_i.var;\012sub f.var j.var by f_j.var;\012";
name = liga;
},
{
code = "sub parenleft by parenleft.case;\012sub parenright by parenright.case;\012sub hyphen by hyphen.case;\012";
name = case;
}
);
fontMaster = (
{
alignmentZones = (
"{720, 8}",
"{700, 8}",
"{500, 8}",
"{0, -8}",
"{-240, -8}"
);
ascender = 720;
capHeight = 700;
descender = -240;
id = "B8B720EE-CA8B-4072-B286-8C23F1A5F625";
visible = 1;
xHeight = 500;
}
);
glyphs = (
{
glyphname = A;
lastChange = "2019-08-23 16:17:46 +0000";
layers = (
{
hints = (
{
origin = "{1, 3}";
type = Corner;
name = _corner.serif;
},
{
origin = "{1, 0}";
scale = "{-1, 1}";
type = Corner;
name = _corner.serif;
options = 1;
},
{
origin = "{0, 4}";
type = Corner;
name = _corner.serif;
},
{
origin = "{0, 0}";
scale = "{-1, 1}";
type = Corner;
name = _corner.serif;
options = 1;
}
);
layerId = "B8B720EE-CA8B-4072-B286-8C23F1A5F625";
paths = (
{
closed = 1;
nodes = (
"283 0 LINE",
"166 708 LINE",
"146 708 LINE",
"122 578 LINE",
"213 0 LINE"
);
},
{
closed = 1;
nodes = (
"30 0 LINE",
"158 708 LINE",
"135 708 LINE",
"7 0 LINE"
);
},
{
closed = 1;
nodes = (
"180 284 LINE",
"180 300 LINE",
"72 300 LINE",
"72 284 LINE"
);
}
);
width = 284;
}
);
unicode = 0041;
},
{
color = 5;
glyphname = B;
lastChange = "2019-08-23 15:41:20 +0000";
layers = (
{
components = (
{
name = _part.uppercase1;
transform = "{1, 0, 0, 1, 80, 228}";
},
{
name = _part.uppercase1;
transform = "{1, 0, 0, -1, 80, 168}";
},
{
name = _part.uppercase1;
transform = "{1, 0, 0, 1, 68, 532}";
},
{
name = _part.uppercase1;
transform = "{1, 0, 0, -1, 68, 548}";
}
);
hints = (
{
origin = "{0, 2}";
scale = "{-1, 1}";
type = Corner;
name = _corner.serif;
options = 1;
},
{
origin = "{0, 3}";
type = Corner;
name = _corner.serif;
}
);
layerId = "B8B720EE-CA8B-4072-B286-8C23F1A5F625";
paths = (
{
closed = 1;
nodes = (
"102 0 LINE",
"102 700 LINE",
"40 700 LINE",
"40 0 LINE"
);
},
{
closed = 1;
nodes = (
"248 148 LINE",
"248 248 LINE",
"186 248 LINE",
"186 148 LINE"
);
}
);
width = 278;
}
);
leftMetricsKey = H;
rightMetricsKey = O;
unicode = 0042;
},
{
color = 5;
glyphname = C;
lastChange = "2019-08-23 16:09:05 +0000";
layers = (
{
components = (
{
name = _part.uppercase2;
transform = "{1, 0, 0, 1, 30, 540}";
},
{
name = _part.uppercase2;
transform = "{1, 0, 0, -1, 30, 160}";
}
);
layerId = "B8B720EE-CA8B-4072-B286-8C23F1A5F625";
paths = (
{
closed = 1;
nodes = (
"92 140 LINE",
"92 560 LINE",
"30 560 LINE",
"30 140 LINE"
);
},
{
closed = 1;
nodes = (
"238 140 LINE",
"238 180 LINE",
"176 180 LINE",
"176 140 LINE"
);
},
{
closed = 1;
nodes = (
"238 520 LINE",
"238 560 LINE",
"176 560 LINE",
"176 520 LINE"
);
}
);
width = 258;
}
);
leftMetricsKey = O;
unicode = 0043;
},
{
color = 5;
glyphname = D;
lastChange = "2019-08-23 15:41:20 +0000";
layers = (
{
components = (
{
name = _part.uppercase1;
transform = "{1, 0, 0, 1, 80, 532}";
},
{
name = _part.uppercase1;
transform = "{1, 0, 0, -1, 80, 168}";
}
);
hints = (
{
origin = "{0, 3}";
type = Corner;
name = _corner.serif;
},
{
origin = "{0, 2}";
scale = "{-1, 1}";
type = Corner;
name = _corner.serif;
options = 1;
}
);
layerId = "B8B720EE-CA8B-4072-B286-8C23F1A5F625";
paths = (
{
closed = 1;
nodes = (
"102 0 LINE",
"102 700 LINE",
"40 700 LINE",
"40 0 LINE"
);
},
{
closed = 1;
nodes = (
"248 148 LINE",
"248 552 LINE",
"186 552 LINE",
"186 148 LINE"
);
}
);
width = 278;
}
);
leftMetricsKey = H;
rightMetricsKey = O;
unicode = 0044;
},
{
glyphname = E;
lastChange = "2019-08-23 18:20:08 +0000";
layers = (
{
hints = (
{
origin = "{0, 12}";
scale = "{-1, 1}";
type = Corner;
name = _corner.serif;
options = 1;
},
{
origin = "{0, 13}";
type = Corner;
name = _corner.serif;
},
{
origin = "{0, 10}";
type = Corner;
name = _corner.vertserif;
}
);
layerId = "B8B720EE-CA8B-4072-B286-8C23F1A5F625";
paths = (
{
closed = 1;
nodes = (
"248 0 LINE",
"248 120 LINE",
"186 120 LINE",
"186 16 LINE",
"102 16 LINE",
"102 380 LINE",
"222 380 LINE",
"222 396 LINE",
"102 396 LINE",
"102 684 LINE",
"228 684 LINE",
"228 700 LINE",
"40 700 LINE",
"40 0 LINE"
);
}
);
width = 268;
}
);
leftMetricsKey = H;
rightMetricsKey = C;
unicode = 0045;
},
{
glyphname = F;
lastChange = "2019-08-23 18:19:57 +0000";
layers = (
{
background = {
hints = (
{
origin = "{0, 1}";
type = Corner;
name = _corner.serif;
},
{
origin = "{0, 10}";
type = Corner;
name = _corner.vertserif;
},
{
origin = "{0, 12}";
scale = "{-1, 1}";
type = Corner;
name = _corner.serif;
options = 1;
},
{
origin = "{0, 13}";
type = Corner;
name = _corner.serif;
}
);
paths = (
{
closed = 1;
nodes = (
"248 0 LINE",
"248 180 LINE",
"186 180 LINE",
"186 16 LINE",
"102 16 LINE",
"102 380 LINE",
"242 380 LINE",
"242 396 LINE",
"102 396 LINE",
"102 684 LINE",
"248 684 LINE",
"248 700 LINE",
"40 700 LINE",
"40 0 LINE"
);
}
);
};
hints = (
{
origin = "{0, 8}";
scale = "{-1, 1}";
type = Corner;
name = _corner.serif;
options = 1;
},
{
origin = "{0, 9}";
type = Corner;
name = _corner.serif;
},
{
origin = "{0, 0}";
scale = "{-1, 1}";
type = Corner;
name = _corner.serif;
options = 1;
},
{
origin = "{0, 6}";
type = Corner;
name = _corner.vertserif;
}
);
layerId = "B8B720EE-CA8B-4072-B286-8C23F1A5F625";
paths = (
{
closed = 1;
nodes = (
"102 0 LINE",
"102 370 LINE",
"222 370 LINE",
"222 386 LINE",
"102 386 LINE",
"102 684 LINE",
"240 684 LINE",
"240 700 LINE",
"40 700 LINE",
"40 0 LINE"
);
}
);
width = 260;
}
);
leftMetricsKey = H;
unicode = 0046;
},
{
color = 5;
glyphname = G;
lastChange = "2019-08-23 17:19:10 +0000";
layers = (
{
layerId = "B8B720EE-CA8B-4072-B286-8C23F1A5F625";
paths = (
{
closed = 1;
nodes = (
"136 280 LINE",
"136 264 LINE",
"176 264 LINE",
"176 0 LINE",
"238 0 LINE",
"238 280 LINE"
);
},
{
closed = 1;
nodes = (
"92 140 LINE",
"92 560 LINE",
"30 560 LINE",
"30 140 LINE"
);
},
{
closed = 1;
nodes = (
"230 520 LINE",
"230 560 LINE",
"168 560 LINE",
"168 520 LINE"
);
},
{
closed = 1;
nodes = (
"92 540 LINE",
"92 590 LINE SMOOTH",
"92 629 OFFCURVE",
"92 692 OFFCURVE",
"130 692 CURVE SMOOTH",
"168 692 OFFCURVE",
"168 629 OFFCURVE",
"168 590 CURVE SMOOTH",
"168 540 LINE",
"230 540 LINE",
"230 580 LINE SMOOTH",
"230 613 OFFCURVE",
"230 708 OFFCURVE",
"130 708 CURVE SMOOTH",
"30 708 OFFCURVE",
"30 613 OFFCURVE",
"30 580 CURVE SMOOTH",
"30 540 LINE"
);
},
{
closed = 1;
nodes = (
"30 160 LINE",
"30 128 LINE SMOOTH",
"30 71 OFFCURVE",
"37 -8 OFFCURVE",
"106 -8 CURVE SMOOTH",
"157 -8 OFFCURVE",
"179 34 OFFCURVE",
"192 84 CURVE",
"192 101 LINE",
"175 44 OFFCURVE",
"154 23 OFFCURVE",
"128 23 CURVE SMOOTH",
"92 23 OFFCURVE",
"92 63 OFFCURVE",
"92 110 CURVE SMOOTH",
"92 160 LINE"
);
}
);
width = 268;
}
);
leftMetricsKey = O;
rightMetricsKey = D;
unicode = 0047;
},
{
glyphname = H;
lastChange = "2019-08-23 14:40:35 +0000";
layers = (
{
hints = (
{
origin = "{0, 8}";
type = Corner;
name = _corner.serif;
},
{
origin = "{0, 9}";
scale = "{-1, 1}";
type = Corner;
name = _corner.serif;
options = 1;
},
{
origin = "{0, 10}";
type = Corner;
name = _corner.serif;
},
{
origin = "{0, 11}";
scale = "{-1, 1}";
type = Corner;
name = _corner.serif;
options = 1;
},
{
origin = "{0, 2}";
type = Corner;
name = _corner.serif;
},
{
origin = "{0, 3}";
scale = "{-1, 1}";
type = Corner;
name = _corner.serif;
options = 1;
},
{
origin = "{0, 4}";
type = Corner;
name = _corner.serif;
},
{
origin = "{0, 5}";
scale = "{-1, 1}";
type = Corner;
name = _corner.serif;
options = 1;
}
);
layerId = "B8B720EE-CA8B-4072-B286-8C23F1A5F625";
paths = (
{
closed = 1;
nodes = (
"186 396 LINE",
"102 396 LINE",
"102 700 LINE",
"40 700 LINE",
"40 0 LINE",
"102 0 LINE",
"102 380 LINE",
"186 380 LINE",
"186 0 LINE",
"248 0 LINE",
"248 700 LINE",
"186 700 LINE"
);
}
);
width = 288;
}
);
leftMetricsKey = n;
rightMetricsKey = n;
unicode = 0048;
},
{
glyphname = I;
lastChange = "2019-08-22 09:43:04 +0000";
layers = (
{
hints = (
{
origin = "{0, 0}";
type = Corner;
name = _corner.serif;
},
{
origin = "{0, 1}";
scale = "{-1, 1}";
type = Corner;
name = _corner.serif;
options = 1;
},
{
origin = "{0, 2}";
type = Corner;
name = _corner.serif;
},
{
origin = "{0, 3}";
scale = "{-1, 1}";
type = Corner;
name = _corner.serif;
options = 1;
}
);
layerId = "B8B720EE-CA8B-4072-B286-8C23F1A5F625";
paths = (
{
closed = 1;
nodes = (
"40 0 LINE",
"102 0 LINE",
"102 700 LINE",
"40 700 LINE"
);
}
);
width = 142;
}
);
leftMetricsKey = H;
rightMetricsKey = H;
unicode = 0049;
},
{
glyphname = J;
lastChange = "2019-08-23 16:09:30 +0000";
layers = (
{
components = (
{
name = _part.uppercase2;
transform = "{1, 0, 0, -1, 60, 160}";
}
);
hints = (
{
origin = "{0, 2}";
type = Corner;
name = _corner.serif;
},
{
origin = "{0, 3}";
scale = "{-1, 1}";
type = Corner;
name = _corner.serif;
options = 1;
},
{
origin = "{1, 3}";
scale = "{-1, 1}";
type = Corner;
name = _corner.serif;
options = 1;
}
);
layerId = "B8B720EE-CA8B-4072-B286-8C23F1A5F625";
paths = (
{
closed = 1;
nodes = (
"206 140 LINE",
"268 140 LINE",
"268 700 LINE",
"206 700 LINE"
);
},
{
closed = 1;
nodes = (
"60 140 LINE",
"122 140 LINE",
"122 180 LINE",
"60 180 LINE"
);
}
);
width = 308;
}
);
leftMetricsKey = C;
rightMetricsKey = U;
unicode = 004A;
},
{
glyphname = K;
lastChange = "2019-08-23 18:33:33 +0000";
layers = (
{
background = {
hints = (
{
origin = "{0, 2}";
type = Corner;
name = _corner.serif;
},
{
origin = "{0, 3}";
scale = "{-1, 1}";
type = Corner;
name = _corner.serif;
options = 1;
},
{
origin = "{0, 4}";
type = Corner;
name = _corner.serif;
},
{
origin = "{0, 5}";
scale = "{-1, 1}";
type = Corner;
name = _corner.serif;
options = 1;
},
{
origin = "{0, 8}";
type = Corner;
name = _corner.serif;
},
{
origin = "{0, 9}";
scale = "{-1, 1}";
type = Corner;
name = _corner.serif;
options = 1;
},
{
origin = "{0, 10}";
type = Corner;
name = _corner.serif;
},
{
origin = "{0, 11}";
scale = "{-1, 1}";
type = Corner;
name = _corner.serif;
options = 1;
}
);
paths = (
{
closed = 1;
nodes = (
"186 396 LINE",
"102 396 LINE",
"102 700 LINE",
"40 700 LINE",
"40 0 LINE",
"102 0 LINE",
"102 380 LINE",
"186 380 LINE",
"186 0 LINE",
"248 0 LINE",
"248 700 LINE",
"186 700 LINE"
);
}
);
};
hints = (
{
origin = "{1, 1}";
type = Corner;
name = _corner.serif;
},
{
origin = "{1, 2}";
scale = "{-1, 1}";
type = Corner;
name = _corner.serif;
options = 1;
},
{
origin = "{1, 3}";
type = Corner;
name = _corner.serif;
},
{
origin = "{1, 0}";
scale = "{-1, 1}";
type = Corner;
name = _corner.serif;
options = 1;
},
{
origin = "{0, 3}";
type = Corner;
name = _corner.serif;
},
{
origin = "{0, 0}";
scale = "{-1, 1}";
type = Corner;
name = _corner.serif;
options = 1;
},
{
origin = "{2, 0}";
type = Corner;
name = _corner.serif;
},
{
origin = "{2, 1}";
scale = "{-1, 1}";
type = Corner;
name = _corner.serif;
options = 1;
}
);
layerId = "B8B720EE-CA8B-4072-B286-8C23F1A5F625";
paths = (
{
closed = 1;
nodes = (
"279 0 LINE",
"146 475 LINE",
"107 375 LINE",
"210 0 LINE"
);
},
{
closed = 1;
nodes = (
"102 0 LINE",
"102 700 LINE",
"40 700 LINE",
"40 0 LINE"
);
},
{
closed = 1;
nodes = (
"243 700 LINE",
"219 700 LINE",
"78 336 LINE",
"78 279 LINE"
);
}
);
width = 297;
}
);
leftMetricsKey = H;
unicode = 004B;
},
{
glyphname = L;
lastChange = "2019-08-23 18:12:57 +0000";
layers = (
{
hints = (
{
origin = "{0, 7}";
type = Corner;
name = _corner.serif;
},
{
origin = "{0, 5}";
type = Corner;
name = _corner.serif;
},
{
origin = "{0, 6}";
scale = "{-1, 1}";
type = Corner;
name = _corner.serif;
options = 1;
}
);
layerId = "B8B720EE-CA8B-4072-B286-8C23F1A5F625";
paths = (
{
closed = 1;
nodes = (
"248 0 LINE",
"248 120 LINE",
"186 120 LINE",
"186 16 LINE",
"102 16 LINE",
"102 700 LINE",
"40 700 LINE",
"40 0 LINE"
);
}
);
width = 268;
}
);
leftMetricsKey = I;
rightMetricsKey = C;
unicode = 004C;
},
{
color = 5;
glyphname = M;
lastChange = "2019-08-23 16:23:39 +0000";
layers = (
{
hints = (
{
origin = "{0, 0}";
scale = "{1, -1}";
type = Corner;
name = _corner.serif;
options = 1;
},
{
origin = "{0, 10}";
scale = "{-1, 1}";
type = Corner;
name = _corner.serif;
options = 1;
},
{
origin = "{0, 11}";
scale = "{-1, -1}";
type = Corner;
name = _corner.serif;
},
{
origin = "{1, 1}";
type = Corner;
name = _corner.serif;
},
{
origin = "{1, 2}";
scale = "{-1, 1}";
type = Corner;
name = _corner.serif;
options = 1;
},
{
origin = "{1, 3}";
type = Corner;
name = _corner.serif;
}
);
layerId = "B8B720EE-CA8B-4072-B286-8C23F1A5F625";
paths = (
{
closed = 1;
nodes = (
"64 0 LINE",
"64 567 LINE",
"52 567 LINE",
"199 0 LINE",
"221 0 LINE",
"371 700 LINE",
"347 700 LINE",
"221 113 LINE",
"236 113 LINE",
"84 700 LINE",
"40 700 LINE",
"40 0 LINE"
);
},
{
closed = 1;
nodes = (
"333 590 LINE",
"333 0 LINE",
"395 0 LINE",
"395 700 LINE",
"357 700 LINE"
);
}
);
width = 435;
}
);
leftMetricsKey = H;
rightMetricsKey = H;
unicode = 004D;
},
{
color = 5;
glyphname = N;
lastChange = "2019-08-23 16:23:39 +0000";
layers = (
{
hints = (
{
origin = "{0, 5}";
scale = "{-1, -1}";
type = Corner;
name = _corner.serif;
},
{
origin = "{0, 6}";
scale = "{1, -1}";
type = Corner;
name = _corner.serif;
options = 1;
},
{
origin = "{0, 10}";
scale = "{-1, 1}";
type = Corner;
name = _corner.serif;
options = 1;
},
{
origin = "{0, 11}";
scale = "{-1, -1}";
type = Corner;
name = _corner.serif;
},
{
origin = "{0, 0}";
scale = "{1, -1}";
type = Corner;
name = _corner.serif;
options = 1;
}
);
layerId = "B8B720EE-CA8B-4072-B286-8C23F1A5F625";
paths = (
{
closed = 1;
nodes = (
"66 0 LINE",
"66 579 LINE",
"54 579 LINE",
"228 0 LINE",
"258 0 LINE",
"258 700 LINE",
"232 700 LINE",
"232 161 LINE",
"246 161 LINE",
"84 700 LINE",
"40 700 LINE",
"40 0 LINE"
);
}
);
width = 298;
}
);
leftMetricsKey = H;
rightMetricsKey = H;
unicode = 004E;
},
{
color = 5;
glyphname = O;
lastChange = "2019-08-23 15:41:20 +0000";
layers = (
{
components = (
{
name = _part.uppercase2;
transform = "{1, 0, 0, -1, 30, 160}";
},
{
name = _part.uppercase2;
transform = "{1, 0, 0, 1, 30, 540}";
}
);
layerId = "B8B720EE-CA8B-4072-B286-8C23F1A5F625";
paths = (
{
closed = 1;
nodes = (
"238 140 LINE",
"238 560 LINE",
"176 560 LINE",
"176 140 LINE"
);
},
{
closed = 1;
nodes = (
"92 140 LINE",
"92 560 LINE",
"30 560 LINE",
"30 140 LINE"
);
}
);
width = 268;
}
);
leftMetricsKey = o;
rightMetricsKey = o;
unicode = 004F;
},
{
color = 5;
glyphname = P;
lastChange = "2019-08-23 16:07:29 +0000";
layers = (
{
background = {
components = (
{
name = _part.uppercase1;
transform = "{1, 0, 0, 1, 80, 228}";
},
{
name = _part.uppercase1;
transform = "{1, 0, 0, -1, 80, 168}";
},
{
name = _part.uppercase1;
transform = "{1, 0, 0, 1, 68, 532}";
},
{
name = _part.uppercase1;
transform = "{1, 0, 0, -1, 68, 548}";
}
);
hints = (
{
origin = "{0, 2}";
scale = "{-1, 1}";
type = Corner;
name = _corner.serif;
options = 1;
},
{
origin = "{0, 3}";
type = Corner;
name = _corner.serif;
}
);
paths = (
{
closed = 1;
nodes = (
"102 0 LINE",
"102 700 LINE",
"40 700 LINE",
"40 0 LINE"
);
},
{
closed = 1;
nodes = (
"248 148 LINE",
"248 248 LINE",
"186 248 LINE",
"186 148 LINE"
);
}
);
};
components = (
{
name = _part.uppercase1;
transform = "{1, 0, 0, 1, 80, 532}";
},
{
name = _part.uppercase1;
transform = "{1, 0, 0, -1, 80, 498}";
}
);
hints = (
{
origin = "{0, 2}";
scale = "{-1, 1}";
type = Corner;
name = _corner.serif;
options = 1;
},
{
origin = "{0, 3}";
type = Corner;
name = _corner.serif;
},
{
origin = "{0, 0}";
scale = "{-1, 1}";
type = Corner;
name = _corner.serif;
options = 1;
}
);
layerId = "B8B720EE-CA8B-4072-B286-8C23F1A5F625";
paths = (
{
closed = 1;
nodes = (
"102 0 LINE",
"102 700 LINE",
"40 700 LINE",
"40 0 LINE"
);
},
{
closed = 1;
nodes = (
"186 478 LINE",
"248 478 LINE",
"248 552 LINE",
"186 552 LINE"
);
}
);
width = 268;
}
);
leftMetricsKey = H;
unicode = 0050;
},
{
color = 5;
glyphname = Q;
lastChange = "2019-08-23 16:08:53 +0000";
layers = (
{
components = (
{
name = O;
}
);
layerId = "B8B720EE-CA8B-4072-B286-8C23F1A5F625";
paths = (
{
closed = 1;
nodes = (
"254 -114 LINE",
"173 -114 OFFCURVE",
"168 -43 OFFCURVE",
"168 0 CURVE",
"120 0 LINE",
"120 -66 OFFCURVE",
"120 -128 OFFCURVE",
"254 -128 CURVE"
);
}
);
width = 284;
}
);
leftMetricsKey = "=O";
rightMetricsKey = "=O";
unicode = 0051;
},
{
color = 5;
glyphname = R;
lastChange = "2019-08-23 15:41:20 +0000";
layers = (
{
components = (
{
name = _part.uppercase1;
transform = "{1, 0, 0, 1, 80, 228}";
},
{
name = _part.uppercase1;
transform = "{1, 0, 0, 1, 76, 532}";
},
{
name = _part.uppercase1;
transform = "{1, 0, 0, -1, 76, 548}";
}
);
hints = (
{
origin = "{0, 2}";
scale = "{1, -1}";
type = Corner;
name = _corner.serif;
options = 1;
},
{
origin = "{0, 3}";
scale = "{-1, -1}";
type = Corner;
name = _corner.serif;
},
{
origin = "{0, 0}";
scale = "{1, -1}";
type = Corner;
name = _corner.serif;
options = 1;
}
);
layerId = "B8B720EE-CA8B-4072-B286-8C23F1A5F625";
paths = (
{
closed = 1;
nodes = (
"102 0 LINE",
"102 700 LINE",
"40 700 LINE",
"40 0 LINE"
);
},
{
closed = 1;
nodes = (
"304 0 LINE",
"304 16 LINE",
"248 16 OFFCURVE",
"248 61 OFFCURVE",
"248 158 CURVE SMOOTH",
"248 248 LINE",
"186 248 LINE",
"186 164 LINE SMOOTH",
"186 94 OFFCURVE",
"186 0 OFFCURVE",
"280 0 CURVE SMOOTH"
);
}
);
width = 294;
}
);
leftMetricsKey = H;
unicode = 0052;
},
{
glyphname = S;
lastChange = "2019-08-23 17:58:14 +0000";
layers = (
{
background = {
components = (
{
name = _part.uppercase2;
transform = "{1, 0, 0, 1, 30, 540}";
},
{
name = _part.uppercase2;
transform = "{1, 0, 0, -1, 30, 160}";
}
);
paths = (
{
closed = 1;
nodes = (
"30 140 LINE",
"92 140 LINE",
"92 180 LINE",
"30 180 LINE"
);
},
{
closed = 1;
nodes = (
"238 520 LINE",
"238 560 LINE",
"176 560 LINE",
"176 520 LINE"
);
},
{
closed = 1;
nodes = (
"238 140 LINE",
"238 160 LINE SMOOTH",
"238 283 OFFCURVE",
"92 427 OFFCURVE",
"92 560 CURVE",
"30 560 LINE",
"30 540 LINE SMOOTH",
"30 417 OFFCURVE",
"176 273 OFFCURVE",
"176 140 CURVE"
);
}
);
};
layerId = "B8B720EE-CA8B-4072-B286-8C23F1A5F625";
paths = (
{
closed = 1;
nodes = (
"59 708 OFFCURVE",
"38 665 OFFCURVE",
"38 572 CURVE SMOOTH",
"38 417 OFFCURVE",
"176 273 OFFCURVE",
"176 127 CURVE SMOOTH",
"176 43 OFFCURVE",
"170 8 OFFCURVE",
"134 8 CURVE SMOOTH",
"92 8 OFFCURVE",
"92 71 OFFCURVE",
"92 110 CURVE SMOOTH",
"92 180 LINE",
"30 180 LINE",
"30 120 LINE SMOOTH",
"30 87 OFFCURVE",
"30 -8 OFFCURVE",
"134 -8 CURVE SMOOTH",
"217 -8 OFFCURVE",
"238 47 OFFCURVE",
"238 143 CURVE SMOOTH",
"238 283 OFFCURVE",
"100 427 OFFCURVE",
"100 586 CURVE SMOOTH",
"100 657 OFFCURVE",
"106 692 OFFCURVE",
"138 692 CURVE SMOOTH",
"176 692 OFFCURVE",
"176 629 OFFCURVE",
"176 590 CURVE SMOOTH",
"176 540 LINE",
"238 540 LINE",
"238 580 LINE SMOOTH",
"238 613 OFFCURVE",
"238 708 OFFCURVE",
"138 708 CURVE SMOOTH"
);
}
);
width = 268;
}
);
unicode = 0053;
},
{
glyphname = T;
lastChange = "2019-08-23 18:08:03 +0000";
layers = (
{
hints = (
{
origin = "{0, 2}";
type = Corner;
name = _corner.serif;
},
{
origin = "{0, 3}";
scale = "{-1, 1}";
type = Corner;
name = _corner.serif;
options = 1;
},
{
origin = "{0, 0}";
scale = "{-1, 1}";
type = Corner;
name = _corner.vertserif;
options = 1;
},
{
origin = "{0, 5}";
type = Corner;
name = _corner.vertserif;
}
);
layerId = "B8B720EE-CA8B-4072-B286-8C23F1A5F625";
paths = (
{
closed = 1;
nodes = (
"10 684 LINE",
"136 684 LINE",
"136 0 LINE",
"198 0 LINE",
"198 684 LINE",
"324 684 LINE",
"324 700 LINE",
"10 700 LINE"
);
}
);
width = 334;
}
);
rightMetricsKey = "=|";
unicode = 0054;
},
{
glyphname = U;
lastChange = "2019-08-23 16:23:50 +0000";
layers = (
{
hints = (
{
origin = "{0, 1}";
type = Corner;
name = _corner.serif;
},
{
origin = "{0, 2}";
scale = "{-1, 1}";
type = Corner;
name = _corner.serif;
options = 1;
},
{
origin = "{1, 1}";
type = Corner;
name = _corner.serif;
},
{
origin = "{1, 2}";
scale = "{-1, 1}";
type = Corner;
name = _corner.serif;
options = 1;
}
);
layerId = "B8B720EE-CA8B-4072-B286-8C23F1A5F625";
paths = (
{
closed = 1;
nodes = (
"212 140 LINE",
"212 700 LINE",
"186 700 LINE",
"186 140 LINE"
);
},
{
closed = 1;
nodes = (
"102 140 LINE",
"102 700 LINE",
"40 700 LINE",
"40 140 LINE"
);
},
{
closed = 1;
nodes = (
"40 120 LINE SMOOTH",
"40 87 OFFCURVE",
"40 -8 OFFCURVE",
"126 -8 CURVE SMOOTH",
"212 -8 OFFCURVE",
"212 87 OFFCURVE",
"212 130 CURVE SMOOTH",
"212 160 LINE",
"186 160 LINE",
"186 126 LINE SMOOTH",
"186 83 OFFCURVE",
"175 20 OFFCURVE",
"141 20 CURVE SMOOTH",
"111 20 OFFCURVE",
"102 71 OFFCURVE",
"102 116 CURVE SMOOTH",
"102 160 LINE",
"40 160 LINE"
);
}
);
width = 252;
}
);
leftMetricsKey = H;
rightMetricsKey = H;
unicode = 0055;
},
{
glyphname = V;
lastChange = "2019-08-23 18:27:05 +0000";
layers = (
{
hints = (
{
origin = "{0, 0}";
type = Corner;
name = _corner.serif;
},
{
origin = "{0, 1}";
scale = "{-1, 1}";
type = Corner;
name = _corner.serif;
options = 1;
},
{
origin = "{0, 4}";
scale = "{-1, -1}";
type = Corner;
name = _corner.serif;
},
{
origin = "{0, 5}";
scale = "{1, -1}";
type = Corner;
name = _corner.serif;
options = 1;
}
);
layerId = "B8B720EE-CA8B-4072-B286-8C23F1A5F625";
paths = (
{
closed = 1;
nodes = (
"261 700 LINE",
"238 700 LINE",
"146 146 LINE",
"155 146 LINE",
"71 700 LINE",
"-1 700 LINE",
"117 -8 LINE",
"143 -8 LINE"
);
}
);
width = 260;
}
);
rightMetricsKey = "=|";
unicode = 0056;
},
{
glyphname = X;
lastChange = "2019-08-23 18:36:48 +0000";
layers = (
{
hints = (
{
origin = "{0, 0}";
type = Corner;
name = _corner.serif;
},
{
origin = "{0, 1}";
scale = "{-1, 1}";
type = Corner;
name = _corner.serif;
options = 1;
},
{
origin = "{0, 2}";
type = Corner;
name = _corner.serif;
},
{
origin = "{0, 3}";
scale = "{-1, 1}";
type = Corner;
name = _corner.serif;
options = 1;
},
{
origin = "{1, 2}";
scale = "{-1, -1}";
type = Corner;
name = _corner.serif;
},
{
origin = "{1, 3}";
scale = "{1, -1}";
type = Corner;
name = _corner.serif;
options = 1;
},
{
origin = "{1, 6}";
scale = "{-1, -1}";
type = Corner;
name = _corner.serif;
},
{
origin = "{1, 7}";
scale = "{1, -1}";
type = Corner;
name = _corner.serif;
options = 1;
}
);
layerId = "B8B720EE-CA8B-4072-B286-8C23F1A5F625";
paths = (
{
closed = 1;
nodes = (
"218 0 LINE",
"286 0 LINE",
"90 700 LINE",
"22 700 LINE"
);
},
{
closed = 1;
nodes = (
"140 388 LINE",
"131 388 LINE",
"8 0 LINE",
"32 0 LINE",
"145 360 LINE",
"154 360 LINE",
"266 700 LINE",
"242 700 LINE"
);
}
);
width = 284;
}
);
unicode = 0058;
},
{
glyphname = Y;
lastChange = "2019-08-23 18:39:46 +0000";
layers = (
{
hints = (
{
origin = "{0, 1}";
scale = "{1, -1}";
type = Corner;
name = _corner.serif;
options = 1;
},
{
origin = "{0, 0}";
scale = "{-1, -1}";
type = Corner;
name = _corner.serif;
},
{
origin = "{0, 3}";
type = Corner;
name = _corner.serif;
},
{
origin = "{0, 4}";
scale = "{-1, 1}";
type = Corner;
name = _corner.serif;
options = 1;
},
{
origin = "{0, 7}";
scale = "{-1, -1}";
type = Corner;
name = _corner.serif;
},
{
origin = "{0, 8}";
scale = "{1, -1}";
type = Corner;
name = _corner.serif;
options = 1;
}
);
layerId = "B8B720EE-CA8B-4072-B286-8C23F1A5F625";
paths = (
{
closed = 1;
nodes = (
"201 0 LINE",
"139 0 LINE",
"139 343 LINE",
"34 700 LINE",
"102 700 LINE",
"197 375 LINE",
"182 375 LINE",
"263 700 LINE",
"285 700 LINE",
"201 364 LINE"
);
}
);
width = 320;
}
);
unicode = 0059;
},
{
glyphname = Z;
lastChange = "2019-08-23 18:35:57 +0000";
layers = (
{
hints = (
{
origin = "{0, 7}";
scale = "{-1, 1}";
type = Corner;
name = _corner.vertserif;
options = 1;
}
);
layerId = "B8B720EE-CA8B-4072-B286-8C23F1A5F625";
paths = (
{
closed = 1;
nodes = (
"234 0 LINE",
"234 120 LINE",
"172 120 LINE",
"172 16 LINE",
"72 16 LINE",
"242 700 LINE",
"20 700 LINE",
"20 684 LINE",
"173 684 LINE",
"0 0 LINE"
);
}
);
width = 234;
}
);
unicode = 005A;
},
{
glyphname = a;
lastChange = "2019-08-23 12:22:16 +0000";
layers = (
{
components = (
{
name = _part.mid;
piece = {
height = 60.03975;
};
transform = "{1, 0, 0, 1, 30, 0}";
}
);
hints = (
{
origin = "{0, 0}";
scale = "{1, -1}";
type = Corner;
name = _corner.serif;
options = 1;
}
);
layerId = "B8B720EE-CA8B-4072-B286-8C23F1A5F625";
paths = (
{
closed = 1;
nodes = (
"230 0 LINE",
"230 360 LINE",
"170 360 LINE",
"170 0 LINE"
);
},
{
closed = 1;
nodes = (
"230 340 LINE",
"230 380 LINE SMOOTH",
"230 413 OFFCURVE",
"230 508 OFFCURVE",
"133 508 CURVE SMOOTH",
"77 508 OFFCURVE",
"40 475 OFFCURVE",
"40 429 CURVE SMOOTH",
"40 400 OFFCURVE",
"54 386 OFFCURVE",
"74 386 CURVE",
"93 386 OFFCURVE",
"106 399 OFFCURVE",
"106 418 CURVE SMOOTH",
"106 435 OFFCURVE",
"95 448 OFFCURVE",
"79 448 CURVE SMOOTH",
"64 448 OFFCURVE",
"52 436 OFFCURVE",
"52 420 CURVE",
"56 420 LINE",
"52 464 OFFCURVE",
"82 492 OFFCURVE",
"119 492 CURVE SMOOTH",
"170 492 OFFCURVE",
"170 439 OFFCURVE",
"170 390 CURVE SMOOTH",
"170 340 LINE"
);
}
);
width = 270;
}
);
leftMetricsKey = c;
rightMetricsKey = n;
unicode = 0061;
},
{
glyphname = b;
lastChange = "2019-08-23 08:00:47 +0000";
layers = (
{
components = (
{
name = _part.mid;
transform = "{-1, 0, 0, 1, 240, 0}";
}
);
hints = (
{
origin = "{0, 2}";
scale = "{1, -1}";
type = Corner;
name = _corner.serif;
options = 1;
},
{
origin = "{0, 3}";
type = Corner;
name = _corner.serif;
}
);
layerId = "B8B720EE-CA8B-4072-B286-8C23F1A5F625";
paths = (
{
closed = 1;
nodes = (
"100 0 LINE",
"100 720 LINE",
"40 720 LINE",
"40 0 LINE"
);
}
);
width = 270;
}
);
leftMetricsKey = h;
rightMetricsKey = o;
unicode = 0062;
},
{
glyphname = c;
lastChange = "2019-08-23 08:21:37 +0000";
layers = (
{
components = (
{
name = _part.lowercase2;
transform = "{1, 0, 0, -1, 30, 160}";
},
{
name = _part.lowercase2;
transform = "{1, 0, 0, 1, 30, 340}";
}
);
layerId = "B8B720EE-CA8B-4072-B286-8C23F1A5F625";
paths = (
{
closed = 1;
nodes = (
"90 140 LINE",
"90 360 LINE",
"30 360 LINE",
"30 140 LINE"
);
}
);
width = 254;
}
);
leftMetricsKey = o;
unicode = 0063;
},
{
glyphname = d;
lastChange = "2019-08-23 12:16:34 +0000";
layers = (
{
components = (
{
name = _part.mid;
transform = "{1, 0, 0, 1, 30, 0}";
}
);
hints = (
{
origin = "{0, 0}";
scale = "{1, -1}";
type = Corner;
name = _corner.serif;
options = 1;
},
{
origin = "{0, 2}";
scale = "{1, -1}";
type = Corner;
name = _corner.serif;
options = 1;
}
);
layerId = "B8B720EE-CA8B-4072-B286-8C23F1A5F625";
paths = (
{
closed = 1;
nodes = (
"230 0 LINE",
"230 720 LINE",
"170 720 LINE",
"170 0 LINE"
);
}
);
width = 270;
}
);
leftMetricsKey = o;
rightMetricsKey = l;
unicode = 0064;
},
{
glyphname = e;
lastChange = "2019-08-23 12:21:12 +0000";
layers = (
{
components = (
{
name = _part.lowercase2;
transform = "{1, 0, 0, -1, 30, 160}";
},
{
name = _part.lowercase2;
transform = "{1, 0, 0, 1, 30, 340}";
}
);
layerId = "B8B720EE-CA8B-4072-B286-8C23F1A5F625";
paths = (
{
closed = 1;
nodes = (
"90 140 LINE",
"90 360 LINE",
"30 360 LINE",
"30 140 LINE"
);
},
{
closed = 1;
nodes = (
"230 310 LINE",
"230 360 LINE",
"170 360 LINE",
"170 326 LINE",
"80 326 LINE",
"80 310 LINE"
);
}
);
width = 260;
}
);
leftMetricsKey = o;
rightMetricsKey = o;
unicode = 0065;
},
{
glyphname = f;
lastChange = "2019-08-23 10:36:26 +0000";
layers = (
{
hints = (
{
origin = "{0, 3}";
type = Corner;
name = _corner.serif;
},
{
origin = "{0, 0}";
scale = "{-1, 1}";
type = Corner;
name = _corner.serif;
options = 1;
}
);
layerId = "B8B720EE-CA8B-4072-B286-8C23F1A5F625";
paths = (
{
closed = 1;
nodes = (
"100 0 LINE",
"100 580 LINE",
"40 580 LINE",
"40 0 LINE"
);
},
{
closed = 1;
nodes = (
"210 484 LINE",
"210 500 LINE",
"-10 500 LINE",
"-10 484 LINE"
);
},
{
closed = 1;
nodes = (
"100 560 LINE",
"100 600 LINE SMOOTH",
"100 655 OFFCURVE",
"124 712 OFFCURVE",
"173 712 CURVE SMOOTH",
"210 712 OFFCURVE",
"240 679 OFFCURVE",
"240 640 CURVE",
"246 640 LINE",
"246 654 OFFCURVE",
"239 671 OFFCURVE",
"220 671 CURVE SMOOTH",
"203 671 OFFCURVE",
"192 659 OFFCURVE",
"192 639 CURVE SMOOTH",
"192 618 OFFCURVE",
"204 604 OFFCURVE",
"224 604 CURVE",
"242 604 OFFCURVE",
"256 616 OFFCURVE",
"256 643 CURVE SMOOTH",
"256 682 OFFCURVE",
"227 728 OFFCURVE",
"159 728 CURVE SMOOTH",
"64 728 OFFCURVE",
"40 635 OFFCURVE",
"40 590 CURVE SMOOTH",
"40 560 LINE"
);
}
);
width = 150;
}
);
leftMetricsKey = t;
unicode = 0066;
},
{
glyphname = g;
lastChange = "2019-08-23 12:22:43 +0000";
layers = (
{
components = (
{
name = _part.lowercase2;
transform = "{1, 0, 0, -1, 30, 360}";
},
{
name = _part.lowercase2;
transform = "{1, 0, 0, 1, 30, 340}";
},
{
name = _part.lowercase2;
transform = "{1, 0, 0, -1, 30, -80}";
}
);
layerId = "B8B720EE-CA8B-4072-B286-8C23F1A5F625";
paths = (
{
closed = 1;
nodes = (
"230 -100 LINE",
"230 46 LINE SMOOTH",
"230 94 OFFCURVE",
"230 142 OFFCURVE",
"137 142 CURVE SMOOTH",
"88 142 OFFCURVE",
"64 142 OFFCURVE",
"64 164 CURVE SMOOTH",
"64 173 OFFCURVE",
"68 183 OFFCURVE",
"88 207 CURVE",
"80 217 LINE",
"36 185 OFFCURVE",
"30 165 OFFCURVE",
"30 148 CURVE SMOOTH",
"30 108 OFFCURVE",
"68 81 OFFCURVE",
"122 81 CURVE SMOOTH",
"170 81 OFFCURVE",
"170 59 OFFCURVE",
"170 1 CURVE SMOOTH",
"170 -100 LINE"
);
},
{
closed = 1;
nodes = (
"90 -100 LINE",
"90 20 LINE",
"30 20 LINE",
"30 -100 LINE"
);
},
{
closed = 1;
nodes = (
"171 525 OFFCURVE",
"192 555 OFFCURVE",
"232 555 CURVE",
"232 562 LINE",
"219 562 OFFCURVE",
"208 550 OFFCURVE",
"208 532 CURVE SMOOTH",
"208 513 OFFCURVE",
"219 500 OFFCURVE",
"237 500 CURVE SMOOTH",
"254 500 OFFCURVE",
"266 511 OFFCURVE",
"266 532 CURVE SMOOTH",
"266 553 OFFCURVE",
"253 568 OFFCURVE",
"227 568 CURVE SMOOTH",
"191 568 OFFCURVE",
"162 539 OFFCURVE",
"150 502 CURVE",
"161 498 LINE"
);
}
);
width = 256;
}
);
leftMetricsKey = a;
unicode = 0067;
},
{
glyphname = idotless;
lastChange = "2019-08-23 08:25:48 +0000";
layers = (
{
hints = (
{
origin = "{0, 0}";
scale = "{1, -1}";
type = Corner;
name = _corner.serif;
options = 1;
},
{
origin = "{0, 2}";
scale = "{1, -1}";
type = Corner;
name = _corner.serif;
options = 1;
},
{
origin = "{0, 3}";
scale = "{-1, -1}";
type = Corner;
name = _corner.serif;
}
);
layerId = "B8B720EE-CA8B-4072-B286-8C23F1A5F625";
paths = (
{
closed = 1;
nodes = (
"100 0 LINE",
"100 500 LINE",
"40 500 LINE",
"40 0 LINE"
);
}
);
width = 140;
}
);
leftMetricsKey = i;
rightMetricsKey = i;
unicode = 0131;
},
{
glyphname = jdotless;
lastChange = "2019-08-23 11:46:31 +0000";
layers = (
{
hints = (
{
origin = "{0, 2}";
scale = "{1, -1}";
type = Corner;
name = _corner.serif;
options = 1;
}
);
layerId = "B8B720EE-CA8B-4072-B286-8C23F1A5F625";
paths = (
{
closed = 1;
nodes = (
"110 -100 LINE",
"110 500 LINE",
"50 500 LINE",
"50 -100 LINE"
);
},
{
closed = 1;
nodes = (
"81 -248 OFFCURVE",
"110 -184 OFFCURVE",
"110 -110 CURVE SMOOTH",
"110 -80 LINE",
"50 -80 LINE",
"50 -120 LINE SMOOTH",
"50 -186 OFFCURVE",
"39 -230 OFFCURVE",
"-5 -230 CURVE SMOOTH",
"-41 -230 OFFCURVE",
"-80 -202 OFFCURVE",
"-80 -144 CURVE",
"-86 -144 LINE",
"-86 -159 OFFCURVE",
"-75 -179 OFFCURVE",
"-55 -179 CURVE SMOOTH",
"-38 -179 OFFCURVE",
"-24 -164 OFFCURVE",
"-24 -143 CURVE SMOOTH",
"-24 -121 OFFCURVE",
"-40 -104 OFFCURVE",
"-59 -104 CURVE SMOOTH",
"-78 -104 OFFCURVE",
"-96 -121 OFFCURVE",
"-96 -152 CURVE SMOOTH",
"-96 -195 OFFCURVE",
"-61 -248 OFFCURVE",
"6 -248 CURVE SMOOTH"
);
}
);
width = 150;
}
);
leftMetricsKey = j;
unicode = 0237;
},
{
glyphname = k;
lastChange = "2019-08-23 09:05:00 +0000";
layers = (
{
components = (
{
name = l;
}
);
hints = (
{
origin = "{0, 3}";
type = Corner;
name = _corner.serif;
},
{
origin = "{0, 0}";
scale = "{-1, 1}";
type = Corner;
name = _corner.serif;
options = 1;
}
);
layerId = "B8B720EE-CA8B-4072-B286-8C23F1A5F625";
paths = (
{
closed = 1;
nodes = (
"268 0 LINE",
"146 364 LINE",
"111 306 LINE",
"210 0 LINE"
);
},
{
closed = 1;
nodes = (
"228 484 LINE",
"262 484 LINE",
"262 500 LINE",
"180 500 LINE",
"180 484 LINE",
"206 484 LINE",
"77 269 LINE",
"77 234 LINE"
);
}
);
width = 256;
}
);
leftMetricsKey = h;
unicode = 006B;
},
{
glyphname = l;
lastChange = "2019-08-23 07:48:40 +0000";
layers = (
{
hints = (
{
origin = "{0, 0}";
scale = "{1, -1}";
type = Corner;
name = _corner.serif;
options = 1;
},
{
origin = "{0, 2}";
scale = "{1, -1}";
type = Corner;
name = _corner.serif;
options = 1;
},
{
origin = "{0, 3}";
scale = "{-1, -1}";
type = Corner;
name = _corner.serif;
}
);
layerId = "B8B720EE-CA8B-4072-B286-8C23F1A5F625";
paths = (
{
closed = 1;
nodes = (
"100 0 LINE",
"100 720 LINE",
"40 720 LINE",
"40 0 LINE"
);
}
);
width = 140;
}
);
leftMetricsKey = n;
rightMetricsKey = n;
unicode = 006C;
},
{
glyphname = m;
lastChange = "2019-08-23 07:04:09 +0000";
layers = (
{
background = {
paths = (
{
closed = 1;
nodes = (
"380 340 LINE",
"380 380 LINE SMOOTH",
"380 425 OFFCURVE",
"375 508 OFFCURVE",
"305 508 CURVE SMOOTH",
"255 508 OFFCURVE",
"233 466 OFFCURVE",
"220 416 CURVE",
"220 399 LINE",
"237 456 OFFCURVE",
"258 477 OFFCURVE",
"284 477 CURVE SMOOTH",
"320 477 OFFCURVE",
"320 437 OFFCURVE",
"320 390 CURVE SMOOTH",
"320 340 LINE"
);
}
);
};
components = (
{
name = n;
}
);
hints = (
{
origin = "{0, 3}";
type = Corner;
name = _corner.serif;
},
{
origin = "{0, 0}";
scale = "{-1, 1}";
type = Corner;
name = _corner.serif;
options = 1;
}
);
layerId = "B8B720EE-CA8B-4072-B286-8C23F1A5F625";
paths = (
{
closed = 1;
nodes = (
"380 0 LINE",
"380 360 LINE",
"320 360 LINE",
"320 0 LINE"
);
},
{
closed = 1;
nodes = (
"380 340 LINE",
"380 380 LINE SMOOTH",
"380 425 OFFCURVE",
"375 508 OFFCURVE",
"304 508 CURVE SMOOTH",
"267 508 OFFCURVE",
"239 486 OFFCURVE",
"220 458 CURVE",
"220 428 LINE",
"236 464 OFFCURVE",
"264 477 OFFCURVE",
"283 477 CURVE SMOOTH",
"320 477 OFFCURVE",
"320 437 OFFCURVE",
"320 390 CURVE SMOOTH",
"320 340 LINE"
);
}
);
width = 420;
}
);
leftMetricsKey = n;
rightMetricsKey = n;
unicode = 006D;
},
{
glyphname = o;
lastChange = "2019-08-23 08:00:27 +0000";
layers = (
{
components = (
{
name = _part.lowercase2;
transform = "{1, 0, 0, -1, 30, 160}";
},
{
name = _part.lowercase2;
transform = "{1, 0, 0, 1, 30, 340}";
}
);
layerId = "B8B720EE-CA8B-4072-B286-8C23F1A5F625";
paths = (
{
closed = 1;
nodes = (
"90 140 LINE",
"90 360 LINE",
"30 360 LINE",
"30 140 LINE"
);
},
{
closed = 1;
nodes = (
"230 140 LINE",
"230 360 LINE",
"170 360 LINE",
"170 140 LINE"
);
}
);
width = 260;
}
);
rightMetricsKey = "=|";
unicode = 006F;
},
{
glyphname = p;
lastChange = "2019-08-23 08:00:31 +0000";
layers = (
{
components = (
{
name = _part.mid;
transform = "{-1, 0, 0, 1, 240, 0}";
}
);
hints = (
{
origin = "{0, 2}";
scale = "{1, -1}";
type = Corner;
name = _corner.serif;
options = 1;
},
{
origin = "{0, 3}";
type = Corner;
name = _corner.serif;
},
{
origin = "{0, 0}";
scale = "{1, -1}";
type = Corner;
name = _corner.serif;
options = 1;
}
);
layerId = "B8B720EE-CA8B-4072-B286-8C23F1A5F625";
paths = (
{
closed = 1;
nodes = (
"100 -240 LINE",
"100 500 LINE",
"40 500 LINE",
"40 -240 LINE"
);
}
);
width = 270;
}
);
leftMetricsKey = l;
rightMetricsKey = o;
unicode = 0070;
},
{
glyphname = q;
lastChange = "2019-08-23 08:00:53 +0000";
layers = (
{
components = (
{
name = _part.mid;
transform = "{1, 0, 0, 1, 30, 0}";
}
);
hints = (
{
origin = "{0, 0}";
scale = "{1, -1}";
type = Corner;
name = _corner.serif;
options = 1;
},
{
origin = "{0, 1}";
type = Corner;
name = _corner.serif;
},
{
origin = "{0, 3}";
type = Corner;
name = _corner.serif;
}
);
layerId = "B8B720EE-CA8B-4072-B286-8C23F1A5F625";
paths = (
{
closed = 1;
nodes = (
"230 -240 LINE",
"230 500 LINE",
"170 500 LINE",
"170 -240 LINE"
);
}
);
width = 270;
}
);
leftMetricsKey = o;
rightMetricsKey = n;
unicode = 0071;
},
{
glyphname = r;
lastChange = "2019-08-23 09:37:39 +0000";
layers = (
{
hints = (
{
origin = "{0, 4}";
scale = "{1, -1}";
type = Corner;
name = _corner.serif;
options = 1;
},
{
origin = "{0, 5}";
scale = "{-1, -1}";
type = Corner;
name = _corner.serif;
}
);
layerId = "B8B720EE-CA8B-4072-B286-8C23F1A5F625";
paths = (
{
closed = 1;
nodes = (
"140 0 LINE",
"140 16 LINE",
"100 16 LINE",
"100 500 LINE",
"40 500 LINE",
"40 0 LINE"
);
},
{
closed = 1;
nodes = (
"202 408 OFFCURVE",
"216 419 OFFCURVE",
"216 451 CURVE SMOOTH",
"216 484 OFFCURVE",
"201 508 OFFCURVE",
"167 508 CURVE SMOOTH",
"128 508 OFFCURVE",
"102 475 OFFCURVE",
"80 440 CURVE",
"80 414 LINE",
"104 458 OFFCURVE",
"139 491 OFFCURVE",
"169 491 CURVE SMOOTH",
"189 491 OFFCURVE",
"203 477 OFFCURVE",
"194 444 CURVE",
"206 444 LINE",
"206 458 OFFCURVE",
"201 473 OFFCURVE",
"182 473 CURVE SMOOTH",
"166 473 OFFCURVE",
"152 461 OFFCURVE",
"152 441 CURVE SMOOTH",
"152 421 OFFCURVE",
"164 408 OFFCURVE",
"184 408 CURVE"
);
}
);
width = 200;
}
);
leftMetricsKey = n;
unicode = 0072;
},
{
glyphname = s;
lastChange = "2019-08-23 10:26:55 +0000";
layers = (
{
layerId = "B8B720EE-CA8B-4072-B286-8C23F1A5F625";
paths = (
{
closed = 1;
nodes = (
"228 390 LINE SMOOTH",
"228 438 OFFCURVE",
"228 508 OFFCURVE",
"138 508 CURVE SMOOTH",
"46 508 OFFCURVE",
"46 434 OFFCURVE",
"46 405 CURVE SMOOTH",
"46 269 OFFCURVE",
"170 219 OFFCURVE",
"170 110 CURVE SMOOTH",
"170 71 OFFCURVE",
"170 8 OFFCURVE",
"130 8 CURVE SMOOTH",
"90 8 OFFCURVE",
"90 71 OFFCURVE",
"90 110 CURVE SMOOTH",
"90 160 LINE",
"30 160 LINE",
"30 120 LINE SMOOTH",
"30 87 OFFCURVE",
"30 -8 OFFCURVE",
"130 -8 CURVE SMOOTH",
"230 -8 OFFCURVE",
"230 87 OFFCURVE",
"230 120 CURVE SMOOTH",
"230 241 OFFCURVE",
"104 290 OFFCURVE",
"104 413 CURVE SMOOTH",
"104 446 OFFCURVE",
"104 492 OFFCURVE",
"138 492 CURVE SMOOTH",
"170 492 OFFCURVE",
"170 445 OFFCURVE",
"170 390 CURVE SMOOTH",
"170 360 LINE",
"228 360 LINE"
);
}
);
width = 260;
}
);
leftMetricsKey = o;
rightMetricsKey = o;
unicode = 0073;
},
{
glyphname = t;
lastChange = "2019-08-23 15:00:28 +0000";
layers = (
{
layerId = "B8B720EE-CA8B-4072-B286-8C23F1A5F625";
paths = (
{
closed = 1;
nodes = (
"100 140 LINE",
"100 662 LINE",
"40 662 LINE",
"40 140 LINE"
);
},
{
closed = 1;
nodes = (
"184 -8 OFFCURVE",
"184 49 OFFCURVE",
"184 70 CURVE",
"166 70 LINE",
"166 34 OFFCURVE",
"151 14 OFFCURVE",
"135 14 CURVE SMOOTH",
"111 14 OFFCURVE",
"100 58 OFFCURVE",
"100 120 CURVE SMOOTH",
"100 160 LINE",
"40 160 LINE",
"40 130 LINE SMOOTH",
"40 87 OFFCURVE",
"45 -8 OFFCURVE",
"123 -8 CURVE SMOOTH"
);
},
{
closed = 1;
nodes = (
"180 484 LINE",
"180 500 LINE",
"-10 500 LINE",
"-10 484 LINE"
);
}
);
width = 160;
}
);
unicode = 0074;
},
{
glyphname = u;
lastChange = "2019-08-23 08:55:22 +0000";
layers = (
{
components = (
{
name = _part.lowercase1;
transform = "{-1, 0, 0, -1, 200, 160}";
}
);
hints = (
{
origin = "{0, 0}";
scale = "{1, -1}";
type = Corner;
name = _corner.serif;
options = 1;
},
{
origin = "{0, 2}";
scale = "{1, -1}";
type = Corner;
name = _corner.serif;
options = 1;
},
{
origin = "{0, 2}";
scale = "{-1, 1}";
type = Corner;
name = _corner.serif;
options = 1;
},
{
origin = "{1, 2}";
scale = "{1, -1}";
type = Corner;
name = _corner.serif;
options = 1;
}
);
layerId = "B8B720EE-CA8B-4072-B286-8C23F1A5F625";
paths = (
{
closed = 1;
nodes = (
"240 0 LINE",
"240 500 LINE",
"180 500 LINE",
"180 0 LINE"
);
},
{
closed = 1;
nodes = (
"100 140 LINE",
"100 500 LINE",
"40 500 LINE",
"40 140 LINE"
);
}
);
width = 280;
}
);
leftMetricsKey = l;
rightMetricsKey = n;
unicode = 0075;
},
{
glyphname = v;
lastChange = "2019-08-23 12:18:12 +0000";
layers = (
{
hints = (
{
origin = "{0, 1}";
type = Corner;
name = _corner.serif;
},
{
origin = "{0, 2}";
scale = "{-1, 1}";
type = Corner;
name = _corner.serif;
options = 1;
},
{
origin = "{0, 5}";
scale = "{-1, -1}";
type = Corner;
name = _corner.serif;
},
{
origin = "{0, 6}";
scale = "{1, -1}";
type = Corner;
name = _corner.serif;
options = 1;
}
);
layerId = "B8B720EE-CA8B-4072-B286-8C23F1A5F625";
paths = (
{
closed = 1;
nodes = (
"111 -8 LINE",
"207 500 LINE",
"186 500 LINE",
"114 112 LINE",
"133 112 LINE",
"57 500 LINE",
"1 500 LINE",
"101 -8 LINE"
);
}
);
width = 208;
}
);
rightMetricsKey = "=|";
unicode = 0076;
},
{
glyphname = x;
lastChange = "2019-08-23 08:32:29 +0000";
layers = (
{
hints = (
{
origin = "{0, 3}";
type = Corner;
name = _corner.serif;
},
{
origin = "{0, 4}";
scale = "{-1, 1}";
type = Corner;
name = _corner.serif;
options = 1;
},
{
origin = "{1, 1}";
scale = "{-1, -1}";
type = Corner;
name = _corner.serif;
},
{
origin = "{1, 2}";
scale = "{1, -1}";
type = Corner;
name = _corner.serif;
options = 1;
},
{
origin = "{0, 7}";
type = Corner;
name = _corner.serif;
},
{
origin = "{0, 0}";
scale = "{-1, 1}";
type = Corner;
name = _corner.serif;
options = 1;
},
{
origin = "{1, 3}";
scale = "{-1, -1}";
type = Corner;
name = _corner.serif;
},
{
origin = "{1, 0}";
scale = "{1, -1}";
type = Corner;
name = _corner.serif;
options = 1;
}
);
layerId = "B8B720EE-CA8B-4072-B286-8C23F1A5F625";
paths = (
{
closed = 1;
nodes = (
"26 0 LINE",
"106 240 LINE",
"115 240 LINE",
"202 500 LINE",
"179 500 LINE",
"104 272 LINE",
"94 272 LINE",
"4 0 LINE"
);
},
{
closed = 1;
nodes = (
"206 0 LINE",
"71 500 LINE",
"14 500 LINE",
"150 0 LINE"
);
}
);
width = 210;
}
);
rightMetricsKey = "=|";
unicode = 0078;
},
{
glyphname = y;
lastChange = "2019-08-23 09:34:15 +0000";
layers = (
{
hints = (
{
origin = "{1, 1}";
type = Corner;
name = _corner.serif;
},
{
origin = "{1, 2}";
scale = "{-1, 1}";
type = Corner;
name = _corner.serif;
options = 1;
}
);
layerId = "B8B720EE-CA8B-4072-B286-8C23F1A5F625";
paths = (
{
closed = 1;
nodes = (
"77 -248 OFFCURVE",
"89 -189 OFFCURVE",
"107 -85 CURVE SMOOTH",
"204 484 LINE",
"236 484 LINE",
"236 500 LINE",
"155 500 LINE",
"155 484 LINE",
"183 484 LINE",
"89 -85 LINE SMOOTH",
"73 -181 OFFCURVE",
"59 -231 OFFCURVE",
"16 -231 CURVE SMOOTH",
"-3 -231 OFFCURVE",
"-48 -222 OFFCURVE",
"-48 -165 CURVE",
"-54 -165 LINE",
"-54 -180 OFFCURVE",
"-43 -200 OFFCURVE",
"-23 -200 CURVE SMOOTH",
"-6 -200 OFFCURVE",
"8 -185 OFFCURVE",
"8 -164 CURVE SMOOTH",
"8 -142 OFFCURVE",
"-8 -125 OFFCURVE",
"-27 -125 CURVE SMOOTH",
"-46 -125 OFFCURVE",
"-64 -142 OFFCURVE",
"-64 -172 CURVE SMOOTH",
"-64 -210 OFFCURVE",
"-35 -248 OFFCURVE",
"15 -248 CURVE SMOOTH"
);
},
{
closed = 1;
nodes = (
"131 123 LINE",
"57 500 LINE",
"1 500 LINE",
"106 -16 LINE"
);
}
);
width = 208;
}
);
rightMetricsKey = v;
unicode = 0079;
},
{
glyphname = z;
lastChange = "2019-08-23 09:08:03 +0000";
layers = (
{
layerId = "B8B720EE-CA8B-4072-B286-8C23F1A5F625";
paths = (
{
closed = 1;
nodes = (
"174 0 LINE",
"174 16 LINE",
"48 16 LINE",
"164 486 LINE",
"164 500 LINE",
"4 500 LINE",
"4 484 LINE",
"110 484 LINE",
"-6 16 LINE",
"-6 0 LINE"
);
}
);
width = 168;
}
);
rightMetricsKey = "=|";
unicode = 007A;
},
{
glyphname = a.single;
lastChange = "2019-08-23 08:32:44 +0000";
layers = (
{
components = (
{
name = _part.mid;
transform = "{1, 0, 0, 1, 30, 0}";
}
);
hints = (
{
origin = "{0, 0}";
scale = "{1, -1}";
type = Corner;
name = _corner.serif;
options = 1;
}
);
layerId = "B8B720EE-CA8B-4072-B286-8C23F1A5F625";
paths = (
{
closed = 1;
nodes = (
"230 0 LINE",
"230 500 LINE",
"170 500 LINE",
"170 0 LINE"
);
}
);
width = 270;
}
);
leftMetricsKey = o;
rightMetricsKey = n;
},
{
glyphname = g.single;
lastChange = "2019-08-23 07:04:09 +0000";
layers = (
{
components = (
{
name = _part.mid;
transform = "{1, 0, 0, 1, 40, 0}";
},
{
name = _part.lowercase2;
transform = "{1, 0, 0, -1, 40, -80}";
}
);
hints = (
{
origin = "{0, 1}";
type = Corner;
name = _corner.serif;
}
);
layerId = "B8B720EE-CA8B-4072-B286-8C23F1A5F625";
paths = (
{
closed = 1;
nodes = (
"240 -100 LINE",
"240 500 LINE",
"180 500 LINE",
"180 -100 LINE"
);
}
);
width = 280;
}
);
},
{
glyphname = a.var;
lastChange = "2019-08-23 12:22:39 +0000";
layers = (
{
components = (
{
name = _part.mid;
piece = {
height = 60.03975;
};
transform = "{1, 0, 0, 1, 30, 0}";
}
);
hints = (
{
origin = "{0, 0}";
scale = "{1, -1}";
type = Corner;
name = _corner.serif;
options = 1;
}
);
layerId = "B8B720EE-CA8B-4072-B286-8C23F1A5F625";
paths = (
{
closed = 1;
nodes = (
"230 0 LINE",
"230 360 LINE",
"170 360 LINE",
"170 0 LINE"
);
},
{
closed = 1;
nodes = (
"230 340 LINE",
"230 380 LINE SMOOTH",
"230 413 OFFCURVE",
"230 508 OFFCURVE",
"134 508 CURVE SMOOTH",
"44 508 OFFCURVE",
"44 423 OFFCURVE",
"44 400 CURVE",
"104 400 LINE",
"104 439 OFFCURVE",
"104 492 OFFCURVE",
"137 492 CURVE SMOOTH",
"170 492 OFFCURVE",
"170 439 OFFCURVE",
"170 390 CURVE SMOOTH",
"170 340 LINE"
);
}
);
width = 270;
}
);
leftMetricsKey = a;
rightMetricsKey = a;
},
{
glyphname = f.var;
lastChange = "2019-08-23 11:11:39 +0000";
layers = (
{
background = {
hints = (
{
origin = "{0, 0}";
scale = "{-1, 1}";
type = Corner;
name = _corner.serif;
options = 1;
},
{
origin = "{0, 3}";
type = Corner;
name = _corner.serif;
}
);
paths = (
{
closed = 1;
nodes = (
"100 0 LINE",
"100 580 LINE",
"40 580 LINE",
"40 0 LINE"
);
},
{
closed = 1;
nodes = (
"-10 484 LINE",
"210 484 LINE",
"210 500 LINE",
"-10 500 LINE"
);
},
{
closed = 1;
nodes = (
"100 600 LINE SMOOTH",
"100 655 OFFCURVE",
"124 712 OFFCURVE",
"173 712 CURVE SMOOTH",
"210 712 OFFCURVE",
"240 679 OFFCURVE",
"240 640 CURVE",
"246 640 LINE",
"246 654 OFFCURVE",
"239 671 OFFCURVE",
"220 671 CURVE SMOOTH",
"203 671 OFFCURVE",
"192 659 OFFCURVE",
"192 639 CURVE SMOOTH",
"192 618 OFFCURVE",
"204 604 OFFCURVE",
"224 604 CURVE",
"242 604 OFFCURVE",
"256 616 OFFCURVE",
"256 643 CURVE SMOOTH",
"256 682 OFFCURVE",
"227 728 OFFCURVE",
"159 728 CURVE SMOOTH",
"64 728 OFFCURVE",
"40 635 OFFCURVE",
"40 590 CURVE SMOOTH",
"40 560 LINE",
"100 560 LINE"
);
}
);
};
hints = (
{
origin = "{0, 3}";
type = Corner;
name = _corner.serif;
},
{
origin = "{0, 0}";
scale = "{-1, 1}";
type = Corner;
name = _corner.serif;
options = 1;
}
);
layerId = "B8B720EE-CA8B-4072-B286-8C23F1A5F625";
paths = (
{
closed = 1;
nodes = (
"100 0 LINE",
"100 580 LINE",
"40 580 LINE",
"40 0 LINE"
);
},
{
closed = 1;
nodes = (
"-10 484 LINE",
"210 484 LINE",
"210 500 LINE",
"-10 500 LINE"
);
},
{
closed = 1;
nodes = (
"100 610 LINE SMOOTH",
"100 659 OFFCURVE",
"100 712 OFFCURVE",
"148 712 CURVE SMOOTH",
"196 712 OFFCURVE",
"196 659 OFFCURVE",
"196 610 CURVE",
"256 610 LINE",
"256 649 OFFCURVE",
"256 728 OFFCURVE",
"153 728 CURVE SMOOTH",
"40 728 OFFCURVE",
"40 633 OFFCURVE",
"40 600 CURVE SMOOTH",
"40 560 LINE",
"100 560 LINE"
);
}
);
width = 150;
}
);
leftMetricsKey = f;
rightMetricsKey = f;
},
{
glyphname = jdotless.var;
lastChange = "2019-08-23 11:46:40 +0000";
layers = (
{
hints = (
{
origin = "{0, 2}";
scale = "{1, -1}";
type = Corner;
name = _corner.serif;
options = 1;
}
);
layerId = "B8B720EE-CA8B-4072-B286-8C23F1A5F625";
paths = (
{
closed = 1;
nodes = (
"110 -100 LINE",
"110 500 LINE",
"50 500 LINE",
"50 -100 LINE"
);
},
{
closed = 1;
nodes = (
"110 -248 OFFCURVE",
"110 -153 OFFCURVE",
"110 -120 CURVE SMOOTH",
"110 -80 LINE",
"50 -80 LINE",
"50 -130 LINE SMOOTH",
"50 -179 OFFCURVE",
"50 -232 OFFCURVE",
"7 -232 CURVE SMOOTH",
"-36 -232 OFFCURVE",
"-36 -179 OFFCURVE",
"-36 -120 CURVE SMOOTH",
"-36 -100 LINE",
"-96 -100 LINE",
"-96 -120 LINE SMOOTH",
"-96 -173 OFFCURVE",
"-96 -248 OFFCURVE",
"4 -248 CURVE SMOOTH"
);
}
);
width = 150;
}
);
leftMetricsKey = j;
rightMetricsKey = jdotless;
},
{
glyphname = r.var;
lastChange = "2019-08-23 11:58:55 +0000";
layers = (
{
hints = (
{
origin = "{1, 4}";
scale = "{1, -1}";
type = Corner;
name = _corner.serif;
options = 1;
},
{
origin = "{1, 5}";
scale = "{-1, -1}";
type = Corner;
name = _corner.serif;
}
);
layerId = "B8B720EE-CA8B-4072-B286-8C23F1A5F625";
paths = (
{
closed = 1;
nodes = (
"97 449 OFFCURVE",
"126 477 OFFCURVE",
"140 477 CURVE SMOOTH",
"156 477 OFFCURVE",
"162 460 OFFCURVE",
"162 432 CURVE",
"216 432 LINE",
"216 444 LINE SMOOTH",
"216 477 OFFCURVE",
"203 508 OFFCURVE",
"168 508 CURVE SMOOTH",
"128 508 OFFCURVE",
"95 468 OFFCURVE",
"80 437 CURVE",
"80 414 LINE"
);
},
{
closed = 1;
nodes = (
"140 0 LINE",
"140 16 LINE",
"100 16 LINE",
"100 500 LINE",
"40 500 LINE",
"40 0 LINE"
);
}
);
width = 200;
}
);
leftMetricsKey = r;
rightMetricsKey = r;
},
{
glyphname = y.var;
lastChange = "2019-08-23 08:37:15 +0000";
layers = (
{
components = (
{
name = _part.lowercase2;
transform = "{1, 0, 0, -1, 40, -80}";
},
{
name = _part.lowercase1;
transform = "{-1, 0, 0, -1, 200, 160}";
}
);
hints = (
{
origin = "{1, 3}";
scale = "{1, -1}";
type = Corner;
name = _corner.serif;
options = 1;
},
{
origin = "{0, 2}";
scale = "{1, -1}";
type = Corner;
name = _corner.serif;
options = 1;
},
{
origin = "{0, 1}";
type = Corner;
name = _corner.serif;
}
);
layerId = "B8B720EE-CA8B-4072-B286-8C23F1A5F625";
paths = (
{
closed = 1;
nodes = (
"240 -100 LINE",
"240 500 LINE",
"180 500 LINE",
"180 -100 LINE"
);
},
{
closed = 1;
nodes = (
"40 140 LINE",
"100 140 LINE",
"100 500 LINE",
"40 500 LINE"
);
}
);
width = 280;
}
);
leftMetricsKey = u;
rightMetricsKey = u;
},
{
color = 2;
export = 0;
glyphname = c.temp;
lastChange = "2019-08-23 14:30:05 +0000";
layers = (
{
layerId = "B8B720EE-CA8B-4072-B286-8C23F1A5F625";
paths = (
{
closed = 1;
nodes = (
"100 340 LINE",
"100 390 LINE SMOOTH",
"100 439 OFFCURVE",
"109 492 OFFCURVE",
"157 492 CURVE SMOOTH",
"201 492 OFFCURVE",
"223 449 OFFCURVE",
"218 404 CURVE",
"224 404 LINE",
"224 420 OFFCURVE",
"212 432 OFFCURVE",
"197 432 CURVE SMOOTH",
"181 432 OFFCURVE",
"170 419 OFFCURVE",
"170 402 CURVE SMOOTH",
"170 383 OFFCURVE",
"183 370 OFFCURVE",
"203 370 CURVE SMOOTH",
"222 370 OFFCURVE",
"236 381 OFFCURVE",
"236 417 CURVE SMOOTH",
"236 467 OFFCURVE",
"209 508 OFFCURVE",
"144 508 CURVE SMOOTH",
"46 508 OFFCURVE",
"40 413 OFFCURVE",
"40 380 CURVE SMOOTH",
"40 340 LINE"
);
},
{
closed = 1;
nodes = (
"240 -8 OFFCURVE",
"240 63 OFFCURVE",
"240 120 CURVE SMOOTH",
"240 160 LINE",
"224 160 LINE",
"224 110 LINE SMOOTH",
"224 33 OFFCURVE",
"196 10 OFFCURVE",
"161 10 CURVE SMOOTH",
"111 10 OFFCURVE",
"100 59 OFFCURVE",
"100 110 CURVE SMOOTH",
"100 160 LINE",
"40 160 LINE",
"40 120 LINE SMOOTH",
"40 41 OFFCURVE",
"72 -8 OFFCURVE",
"149 -8 CURVE SMOOTH"
);
},
{
closed = 1;
nodes = (
"100 140 LINE",
"100 360 LINE",
"40 360 LINE",
"40 140 LINE"
);
}
);
width = 280;
}
);
},
{
glyphname = f_l;
lastChange = "2019-08-23 11:11:45 +0000";
layers = (
{
background = {
paths = (
{
closed = 1;
nodes = (
"100 560 LINE",
"100 600 LINE SMOOTH",
"100 655 OFFCURVE",
"124 712 OFFCURVE",
"173 712 CURVE SMOOTH",
"210 712 OFFCURVE",
"240 679 OFFCURVE",
"240 640 CURVE",
"246 640 LINE",
"246 654 OFFCURVE",
"239 671 OFFCURVE",
"220 671 CURVE SMOOTH",
"203 671 OFFCURVE",
"192 659 OFFCURVE",
"192 639 CURVE SMOOTH",
"192 618 OFFCURVE",
"204 604 OFFCURVE",
"224 604 CURVE",
"242 604 OFFCURVE",
"256 616 OFFCURVE",
"256 643 CURVE SMOOTH",
"256 682 OFFCURVE",
"227 728 OFFCURVE",
"159 728 CURVE SMOOTH",
"64 728 OFFCURVE",
"40 635 OFFCURVE",
"40 590 CURVE SMOOTH",
"40 560 LINE"
);
}
);
};
hints = (
{
origin = "{0, 3}";
type = Corner;
name = _corner.serif;
},
{
origin = "{0, 0}";
scale = "{-1, 1}";
type = Corner;
name = _corner.serif;
options = 1;
},
{
origin = "{3, 0}";
scale = "{1, -1}";
type = Corner;
name = _corner.serif;
options = 1;
},
{
origin = "{3, 3}";
scale = "{-1, -1}";
type = Corner;
name = _corner.serif;
}
);
layerId = "B8B720EE-CA8B-4072-B286-8C23F1A5F625";
paths = (
{
closed = 1;
nodes = (
"100 0 LINE",
"100 580 LINE",
"40 580 LINE",
"40 0 LINE"
);
},
{
closed = 1;
nodes = (
"210 484 LINE",
"210 500 LINE",
"-10 500 LINE",
"-10 484 LINE"
);
},
{
closed = 1;
nodes = (
"100 560 LINE",
"100 600 LINE SMOOTH",
"100 669 OFFCURVE",
"128 709 OFFCURVE",
"176 709 CURVE SMOOTH",
"189 709 OFFCURVE",
"196 706 OFFCURVE",
"210 695 CURVE",
"220 711 LINE",
"205 721 OFFCURVE",
"186 728 OFFCURVE",
"158 728 CURVE SMOOTH",
"57 728 OFFCURVE",
"40 635 OFFCURVE",
"40 590 CURVE SMOOTH",
"40 560 LINE"
);
},
{
closed = 1;
nodes = (
"250 0 LINE",
"250 720 LINE",
"190 720 LINE",
"190 0 LINE"
);
}
);
width = 290;
}
);
leftMetricsKey = f;
rightMetricsKey = l;
},
{
glyphname = "a-hira";
lastChange = "2019-08-23 06:16:57 +0000";
layers = (
{
background = {
components = (
{
alignment = -1;
name = V;
transform = "{1, 0, 0, 1, 99, 0}";
},
{
name = V;
transform = "{1, 0, 0, 1, 291, 0}";
}
);
};
layerId = "B8B720EE-CA8B-4072-B286-8C23F1A5F625";
paths = (
{
closed = 1;
nodes = (
"432 0 LINE",
"483 87 OFFCURVE",
"504 145 OFFCURVE",
"504 240 CURVE SMOOTH",
"504 390 OFFCURVE",
"470 466 OFFCURVE",
"282 466 CURVE",
"110 466 OFFCURVE",
"64 382 OFFCURVE",
"64 240 CURVE",
"64 101 OFFCURVE",
"118 0 OFFCURVE",
"211 -1 CURVE",
"319 0 OFFCURVE",
"368 87 OFFCURVE",
"368 261 CURVE",
"331 303 LINE",
"331 201 OFFCURVE",
"300 10 OFFCURVE",
"208 10 CURVE",
"150 10 OFFCURVE",
"143 144 OFFCURVE",
"143 228 CURVE",
"143 327 OFFCURVE",
"155 445 OFFCURVE",
"281 445 CURVE",
"418 445 OFFCURVE",
"438 338 OFFCURVE",
"438 253 CURVE",
"438 159 OFFCURVE",
"435 116 OFFCURVE",
"394 43 CURVE"
);
},
{
closed = 1;
nodes = (
"307 114 OFFCURVE",
"257 201 OFFCURVE",
"257 350 CURVE",
"257 430 LINE",
"257 561 OFFCURVE",
"262 623 OFFCURVE",
"280 700 CURVE",
"218 700 LINE",
"200 635 OFFCURVE",
"195 573 OFFCURVE",
"195 475 CURVE",
"195 364 LINE",
"195 199 OFFCURVE",
"264 65 OFFCURVE",
"320 -11 CURVE",
"371 19 LINE"
);
},
{
closed = 1;
nodes = (
"475 560 LINE",
"475 576 LINE",
"70 576 LINE",
"70 560 LINE"
);
}
);
width = 1000;
}
);
unicode = 3042;
},
{
glyphname = one;
lastChange = "2019-08-23 17:44:59 +0000";
layers = (
{
layerId = "B8B720EE-CA8B-4072-B286-8C23F1A5F625";
paths = (
{
closed = 1;
nodes = (
"196 0 LINE",
"196 16 LINE",
"136 16 LINE",
"136 710 LINE",
"10 682 LINE",
"10 665 LINE",
"74 679 LINE",
"74 16 LINE",
"14 16 LINE",
"14 0 LINE"
);
}
);
width = 206;
}
);
rightMetricsKey = l;
unicode = 0031;
},
{
glyphname = two;
lastChange = "2019-08-23 18:15:00 +0000";
layers = (
{
components = (
{
name = _part.uppercase2;
transform = "{1, 0, 0, 1, 20, 540}";
}
);
layerId = "B8B720EE-CA8B-4072-B286-8C23F1A5F625";
paths = (
{
closed = 1;
nodes = (
"228 0 LINE",
"228 120 LINE",
"166 120 LINE",
"166 16 LINE",
"82 16 LINE",
"82 83 LINE SMOOTH",
"82 270 OFFCURVE",
"228 338 OFFCURVE",
"228 525 CURVE SMOOTH",
"228 565 LINE",
"166 565 LINE",
"166 538 LINE SMOOTH",
"166 363 OFFCURVE",
"20 295 OFFCURVE",
"20 120 CURVE SMOOTH",
"20 0 LINE"
);
},
{
closed = 1;
nodes = (
"82 492 LINE",
"82 565 LINE",
"20 565 LINE",
"20 492 LINE"
);
}
);
width = 248;
}
);
unicode = 0032;
},
{
glyphname = three;
lastChange = "2019-08-23 17:26:44 +0000";
layers = (
{
components = (
{
name = _part.uppercase2;
transform = "{1, 0, 0, 1, 20, 540}";
},
{
name = _part.uppercase2;
transform = "{1, 0, 0, -1, 20, 160}";
},
{
name = _part.uppercase1;
transform = "{1, 0, 0, -1, 60, 550}";
},
{
name = _part.uppercase1;
transform = "{1, 0, 0, 1, 60, 230}";
}
);
layerId = "B8B720EE-CA8B-4072-B286-8C23F1A5F625";
paths = (
{
closed = 1;
nodes = (
"166 140 LINE",
"228 140 LINE",
"228 250 LINE",
"166 250 LINE"
);
},
{
closed = 1;
nodes = (
"20 140 LINE",
"82 140 LINE",
"82 200 LINE",
"20 200 LINE"
);
}
);
width = 258;
}
);
leftMetricsKey = "=|C";
rightMetricsKey = O;
unicode = 0033;
},
{
glyphname = four;
lastChange = "2019-08-23 17:45:37 +0000";
layers = (
{
hints = (
{
origin = "{1, 4}";
type = Corner;
name = _corner.serif;
},
{
origin = "{1, 0}";
scale = "{-1, 1}";
type = Corner;
name = _corner.serif;
options = 1;
}
);
layerId = "B8B720EE-CA8B-4072-B286-8C23F1A5F625";
paths = (
{
closed = 1;
nodes = (
"236 171 LINE",
"236 187 LINE",
"18 187 LINE",
"186 700 LINE",
"164 700 LINE",
"-10 171 LINE"
);
},
{
closed = 1;
nodes = (
"188 0 LINE",
"188 700 LINE",
"176 700 LINE",
"126 546 LINE",
"126 0 LINE"
);
}
);
width = 246;
}
);
unicode = 0034;
},
{
glyphname = five;
lastChange = "2019-08-23 17:41:55 +0000";
layers = (
{
components = (
{
name = _part.uppercase2;
transform = "{1, 0, 0, -1, 20, 160}";
}
);
layerId = "B8B720EE-CA8B-4072-B286-8C23F1A5F625";
paths = (
{
closed = 1;
nodes = (
"166 140 LINE",
"228 140 LINE",
"228 310 LINE",
"166 310 LINE"
);
},
{
closed = 1;
nodes = (
"20 140 LINE",
"82 140 LINE",
"82 200 LINE",
"20 200 LINE"
);
},
{
closed = 1;
nodes = (
"28 382 LINE",
"70 382 LINE",
"91 416 LINE",
"91 684 LINE",
"228 684 LINE",
"228 700 LINE",
"28 700 LINE"
);
},
{
closed = 1;
nodes = (
"228 290 LINE",
"228 322 LINE SMOOTH",
"228 379 OFFCURVE",
"221 458 OFFCURVE",
"152 458 CURVE SMOOTH",
"107 458 OFFCURVE",
"83 428 OFFCURVE",
"64 382 CURVE",
"77 382 LINE",
"93 407 OFFCURVE",
"113 427 OFFCURVE",
"135 427 CURVE SMOOTH",
"166 427 OFFCURVE",
"166 387 OFFCURVE",
"166 340 CURVE SMOOTH",
"166 290 LINE"
);
}
);
width = 258;
}
);
rightMetricsKey = O;
unicode = 0035;
},
{
glyphname = six;
lastChange = "2019-08-23 17:21:03 +0000";
layers = (
{
components = (
{
name = _part.uppercase2;
transform = "{-1, 0, 0, 1, 238, 540}";
},
{
name = _part.uppercase2;
transform = "{-1, 0, 0, -1, 238, 160}";
}
);
layerId = "B8B720EE-CA8B-4072-B286-8C23F1A5F625";
paths = (
{
closed = 1;
nodes = (
"30 560 LINE",
"30 140 LINE",
"92 140 LINE",
"92 560 LINE"
);
},
{
closed = 1;
nodes = (
"176 270 LINE",
"176 140 LINE",
"238 140 LINE",
"238 270 LINE"
);
},
{
closed = 1;
nodes = (
"238 250 LINE",
"238 282 LINE SMOOTH",
"238 339 OFFCURVE",
"231 418 OFFCURVE",
"162 418 CURVE SMOOTH",
"111 418 OFFCURVE",
"89 376 OFFCURVE",
"76 326 CURVE",
"76 309 LINE",
"93 366 OFFCURVE",
"114 387 OFFCURVE",
"140 387 CURVE SMOOTH",
"176 387 OFFCURVE",
"176 347 OFFCURVE",
"176 300 CURVE SMOOTH",
"176 250 LINE"
);
},
{
closed = 1;
nodes = (
"238 520 LINE",
"238 560 LINE",
"176 560 LINE",
"176 520 LINE"
);
}
);
width = 268;
}
);
leftMetricsKey = O;
rightMetricsKey = O;
unicode = 0036;
},
{
glyphname = seven;
lastChange = "2019-08-23 18:05:44 +0000";
layers = (
{
hints = (
{
origin = "{0, 0}";
scale = "{-1, 1}";
type = Corner;
name = _corner.vertserif;
options = 1;
}
);
layerId = "B8B720EE-CA8B-4072-B286-8C23F1A5F625";
paths = (
{
closed = 1;
nodes = (
"10 684 LINE",
"157 684 LINE",
"34 0 LINE",
"92 0 LINE",
"220 700 LINE",
"10 700 LINE"
);
}
);
width = 230;
}
);
unicode = 0037;
},
{
glyphname = eight;
lastChange = "2019-08-23 17:43:27 +0000";
layers = (
{
components = (
{
name = _part.uppercase2;
transform = "{1, 0, 0, -1, 30, 160}";
},
{
name = _part.uppercase2;
transform = "{1, 0, 0, 1, 30, 250}";
}
);
layerId = "B8B720EE-CA8B-4072-B286-8C23F1A5F625";
paths = (
{
closed = 1;
nodes = (
"238 140 LINE",
"238 270 LINE",
"176 270 LINE",
"176 140 LINE"
);
},
{
closed = 1;
nodes = (
"92 140 LINE",
"92 270 LINE",
"30 270 LINE",
"30 140 LINE"
);
},
{
closed = 1;
nodes = (
"34 530 LINE SMOOTH",
"34 497 OFFCURVE",
"34 402 OFFCURVE",
"134 402 CURVE SMOOTH",
"234 402 OFFCURVE",
"234 497 OFFCURVE",
"234 530 CURVE SMOOTH",
"234 570 LINE",
"172 570 LINE",
"172 520 LINE SMOOTH",
"172 481 OFFCURVE",
"172 418 OFFCURVE",
"134 418 CURVE SMOOTH",
"96 418 OFFCURVE",
"96 481 OFFCURVE",
"96 520 CURVE SMOOTH",
"96 570 LINE",
"34 570 LINE"
);
},
{
closed = 1;
nodes = (
"96 540 LINE",
"96 590 LINE SMOOTH",
"96 629 OFFCURVE",
"96 692 OFFCURVE",
"134 692 CURVE SMOOTH",
"172 692 OFFCURVE",
"172 629 OFFCURVE",
"172 590 CURVE SMOOTH",
"172 540 LINE",
"234 540 LINE",
"234 580 LINE SMOOTH",
"234 613 OFFCURVE",
"234 708 OFFCURVE",
"134 708 CURVE SMOOTH",
"34 708 OFFCURVE",
"34 613 OFFCURVE",
"34 580 CURVE SMOOTH",
"34 540 LINE"
);
}
);
width = 268;
}
);
leftMetricsKey = O;
rightMetricsKey = O;
unicode = 0038;
},
{
glyphname = nine;
lastChange = "2019-08-23 17:46:00 +0000";
layers = (
{
components = (
{
name = _part.uppercase2;
transform = "{1, 0, 0, -1, 30, 160}";
},
{
name = _part.uppercase2;
transform = "{1, 0, 0, 1, 30, 540}";
}
);
layerId = "B8B720EE-CA8B-4072-B286-8C23F1A5F625";
paths = (
{
closed = 1;
nodes = (
"238 140 LINE",
"238 560 LINE",
"176 560 LINE",
"176 140 LINE"
);
},
{
closed = 1;
nodes = (
"92 470 LINE",
"92 560 LINE",
"30 560 LINE",
"30 470 LINE"
);
},
{
closed = 1;
nodes = (
"30 490 LINE",
"30 458 LINE SMOOTH",
"30 401 OFFCURVE",
"37 322 OFFCURVE",
"106 322 CURVE SMOOTH",
"157 322 OFFCURVE",
"179 364 OFFCURVE",
"192 414 CURVE",
"192 431 LINE",
"175 374 OFFCURVE",
"154 353 OFFCURVE",
"128 353 CURVE SMOOTH",
"92 353 OFFCURVE",
"92 393 OFFCURVE",
"92 440 CURVE SMOOTH",
"92 490 LINE"
);
},
{
closed = 1;
nodes = (
"92 140 LINE",
"92 180 LINE",
"30 180 LINE",
"30 140 LINE"
);
}
);
width = 268;
}
);
leftMetricsKey = O;
rightMetricsKey = O;
unicode = 0039;
},
{
glyphname = period;
lastChange = "2019-08-23 17:13:45 +0000";
layers = (
{
layerId = "B8B720EE-CA8B-4072-B286-8C23F1A5F625";
paths = (
{
closed = 1;
nodes = (
"105 -8 OFFCURVE",
"126 13 OFFCURVE",
"126 40 CURVE SMOOTH",
"126 67 OFFCURVE",
"105 88 OFFCURVE",
"78 88 CURVE SMOOTH",
"51 88 OFFCURVE",
"30 67 OFFCURVE",
"30 40 CURVE SMOOTH",
"30 13 OFFCURVE",
"51 -8 OFFCURVE",
"78 -8 CURVE SMOOTH"
);
}
);
width = 156;
}
);
rightMetricsKey = "=|";
unicode = 002E;
},
{
glyphname = comma;
lastChange = "2019-08-23 16:32:28 +0000";
layers = (
{
background = {
paths = (
{
closed = 1;
nodes = (
"105 -8 OFFCURVE",
"126 13 OFFCURVE",
"126 40 CURVE SMOOTH",
"126 67 OFFCURVE",
"105 88 OFFCURVE",
"78 88 CURVE SMOOTH",
"51 88 OFFCURVE",
"30 67 OFFCURVE",
"30 40 CURVE SMOOTH",
"30 13 OFFCURVE",
"51 -8 OFFCURVE",
"78 -8 CURVE SMOOTH"
);
}
);
};
layerId = "B8B720EE-CA8B-4072-B286-8C23F1A5F625";
paths = (
{
closed = 1;
nodes = (
"103 30 LINE",
"103 -48 OFFCURVE",
"72 -86 OFFCURVE",
"35 -94 CURVE",
"35 -114 LINE",
"96 -106 OFFCURVE",
"126 -41 OFFCURVE",
"126 22 CURVE SMOOTH",
"126 68 OFFCURVE",
"105 88 OFFCURVE",
"78 88 CURVE SMOOTH",
"51 88 OFFCURVE",
"30 67 OFFCURVE",
"30 40 CURVE SMOOTH",
"30 13 OFFCURVE",
"51 -8 OFFCURVE",
"78 -8 CURVE SMOOTH",
"104 -8 OFFCURVE",
"113 12 OFFCURVE",
"113 30 CURVE"
);
}
);
width = 156;
}
);
leftMetricsKey = period;
rightMetricsKey = period;
unicode = 002C;
},
{
glyphname = parenleft;
lastChange = "2019-08-23 16:46:59 +0000";
layers = (
{
layerId = "B8B720EE-CA8B-4072-B286-8C23F1A5F625";
paths = (
{
closed = 1;
nodes = (
"194 -168 LINE",
"105 -44 OFFCURVE",
"80 74 OFFCURVE",
"80 262 CURVE SMOOTH",
"80 450 OFFCURVE",
"105 570 OFFCURVE",
"194 694 CURVE",
"179 707 LINE",
"40 547 OFFCURVE",
"20 380 OFFCURVE",
"20 262 CURVE SMOOTH",
"20 144 OFFCURVE",
"40 -23 OFFCURVE",
"179 -183 CURVE"
);
}
);
width = 210;
}
);
unicode = 0028;
},
{
glyphname = hyphen;
lastChange = "2019-08-23 16:30:33 +0000";
layers = (
{
layerId = "B8B720EE-CA8B-4072-B286-8C23F1A5F625";
paths = (
{
closed = 1;
nodes = (
"20 244 LINE",
"180 244 LINE",
"180 280 LINE",
"20 280 LINE"
);
}
);
width = 200;
}
);
rightMetricsKey = "=|";
unicode = 002D;
},
{
glyphname = dotaccentcomb;
lastChange = "2019-08-23 03:02:55 +0000";
layers = (
{
layerId = "B8B720EE-CA8B-4072-B286-8C23F1A5F625";
paths = (
{
closed = 1;
nodes = (
"70 595 OFFCURVE",
"90 615 OFFCURVE",
"90 640 CURVE SMOOTH",
"90 665 OFFCURVE",
"70 685 OFFCURVE",
"45 685 CURVE SMOOTH",
"20 685 OFFCURVE",
"0 665 OFFCURVE",
"0 640 CURVE SMOOTH",
"0 615 OFFCURVE",
"20 595 OFFCURVE",
"45 595 CURVE"
);
}
);
width = 90;
}
);
unicode = 0307;
},
{
export = 0;
glyphname = _corner.serif;
lastChange = "2019-08-23 18:19:42 +0000";
layers = (
{
anchors = (
{
name = left;
position = "{0, 7}";
},
{
name = origin;
position = "{0, 0}";
},
{
name = right;
position = "{10, 0}";
}
);
layerId = "B8B720EE-CA8B-4072-B286-8C23F1A5F625";
paths = (
{
closed = 0;
nodes = (
"0 16 LINE",
"-30 16 LINE",
"-30 0 LINE",
"15 0 LINE"
);
}
);
width = 25;
}
);
},
{
export = 0;
glyphname = _corner.vertserif;
lastChange = "2019-08-23 18:19:40 +0000";
layers = (
{
anchors = (
{
name = left;
position = "{0, 7}";
},
{
name = origin;
position = "{0, 0}";
},
{
name = right;
position = "{10, 0}";
}
);
layerId = "B8B720EE-CA8B-4072-B286-8C23F1A5F625";
paths = (
{
closed = 0;
nodes = (
"0 24 LINE",
"-60 24 LINE",
"-60 0 LINE",
"15 0 LINE"
);
}
);
width = 25;
}
);
},
{
export = 0;
glyphname = _part.fliga1;
lastChange = "2019-08-23 11:02:33 +0000";
layers = (
{
hints = (
{
origin = "{0, 0}";
scale = "{-1, 1}";
type = Corner;
name = _corner.serif;
options = 1;
},
{
origin = "{0, 3}";
type = Corner;
name = _corner.serif;
}
);
layerId = "B8B720EE-CA8B-4072-B286-8C23F1A5F625";
paths = (
{
closed = 1;
nodes = (
"100 0 LINE",
"100 580 LINE",
"40 580 LINE",
"40 0 LINE"
);
},
{
closed = 1;
nodes = (
"210 484 LINE",
"210 500 LINE",
"-10 500 LINE",
"-10 484 LINE"
);
},
{
closed = 1;
nodes = (
"100 560 LINE",
"100 600 LINE SMOOTH",
"100 655 OFFCURVE",
"124 712 OFFCURVE",
"176 712 CURVE SMOOTH",
"216 712 OFFCURVE",
"246 679 OFFCURVE",
"246 640 CURVE",
"252 640 LINE",
"252 654 OFFCURVE",
"242 685 OFFCURVE",
"217 685 CURVE SMOOTH",
"192 685 OFFCURVE",
"172 665 OFFCURVE",
"172 640 CURVE SMOOTH",
"172 615 OFFCURVE",
"192 595 OFFCURVE",
"218 595 CURVE SMOOTH",
"242 595 OFFCURVE",
"262 613 OFFCURVE",
"262 644 CURVE SMOOTH",
"262 682 OFFCURVE",
"233 728 OFFCURVE",
"162 728 CURVE SMOOTH",
"64 728 OFFCURVE",
"40 635 OFFCURVE",
"40 590 CURVE SMOOTH",
"40 560 LINE"
);
}
);
width = 262;
}
);
},
{
export = 0;
glyphname = _part.fliga2;
lastChange = "2019-08-23 11:42:28 +0000";
layers = (
{
hints = (
{
origin = "{0, 0}";
scale = "{-1, 1}";
type = Corner;
name = _corner.serif;
options = 1;
},
{
origin = "{0, 3}";
type = Corner;
name = _corner.serif;
}
);
layerId = "B8B720EE-CA8B-4072-B286-8C23F1A5F625";
paths = (
{
closed = 1;
nodes = (
"100 0 LINE",
"100 580 LINE",
"40 580 LINE",
"40 0 LINE"
);
},
{
closed = 1;
nodes = (
"210 484 LINE",
"210 500 LINE",
"-10 500 LINE",
"-10 484 LINE"
);
},
{
closed = 1;
nodes = (
"252 680 LINE",
"234 706 OFFCURVE",
"207 728 OFFCURVE",
"160 728 CURVE SMOOTH",
"64 728 OFFCURVE",
"40 635 OFFCURVE",
"40 590 CURVE SMOOTH",
"40 560 LINE",
"100 560 LINE",
"100 600 LINE SMOOTH",
"100 655 OFFCURVE",
"124 709 OFFCURVE",
"174 709 CURVE SMOOTH",
"201 709 OFFCURVE",
"219 694 OFFCURVE",
"238 669 CURVE"
);
}
);
width = 252;
}
);
},
{
export = 0;
glyphname = _part.fligavar1;
lastChange = "2019-08-23 11:42:32 +0000";
layers = (
{
hints = (
{
origin = "{0, 0}";
scale = "{-1, 1}";
type = Corner;
name = _corner.serif;
options = 1;
},
{
origin = "{0, 3}";
type = Corner;
name = _corner.serif;
}
);
layerId = "B8B720EE-CA8B-4072-B286-8C23F1A5F625";
paths = (
{
closed = 1;
nodes = (
"100 0 LINE",
"100 580 LINE",
"40 580 LINE",
"40 0 LINE"
);
},
{
closed = 1;
nodes = (
"-10 484 LINE",
"210 484 LINE",
"210 500 LINE",
"-10 500 LINE"
);
},
{
closed = 1;
nodes = (
"100 610 LINE SMOOTH",
"100 659 OFFCURVE",
"104 712 OFFCURVE",
"148 712 CURVE SMOOTH",
"190 712 OFFCURVE",
"190 665 OFFCURVE",
"190 610 CURVE",
"250 610 LINE",
"250 649 OFFCURVE",
"250 728 OFFCURVE",
"150 728 CURVE SMOOTH",
"40 728 OFFCURVE",
"40 633 OFFCURVE",
"40 600 CURVE SMOOTH",
"40 560 LINE",
"100 560 LINE"
);
}
);
width = 250;
}
);
},
{
export = 0;
glyphname = _part.lowercase1;
lastChange = "2019-08-22 18:57:46 +0000";
layers = (
{
layerId = "B8B720EE-CA8B-4072-B286-8C23F1A5F625";
paths = (
{
closed = 1;
nodes = (
"160 0 LINE",
"160 40 LINE SMOOTH",
"160 85 OFFCURVE",
"155 168 OFFCURVE",
"85 168 CURVE SMOOTH",
"35 168 OFFCURVE",
"13 126 OFFCURVE",
"0 76 CURVE",
"0 59 LINE",
"17 116 OFFCURVE",
"38 137 OFFCURVE",
"64 137 CURVE SMOOTH",
"100 137 OFFCURVE",
"100 97 OFFCURVE",
"100 50 CURVE SMOOTH",
"100 0 LINE"
);
}
);
width = 160;
}
);
},
{
export = 0;
glyphname = _part.lowercase2;
lastChange = "2019-08-22 18:58:14 +0000";
layers = (
{
layerId = "B8B720EE-CA8B-4072-B286-8C23F1A5F625";
paths = (
{
closed = 1;
nodes = (
"60 0 LINE",
"60 50 LINE SMOOTH",
"60 89 OFFCURVE",
"60 152 OFFCURVE",
"100 152 CURVE SMOOTH",
"140 152 OFFCURVE",
"140 89 OFFCURVE",
"140 50 CURVE SMOOTH",
"140 0 LINE",
"200 0 LINE",
"200 40 LINE SMOOTH",
"200 73 OFFCURVE",
"200 168 OFFCURVE",
"100 168 CURVE SMOOTH",
"0 168 OFFCURVE",
"0 73 OFFCURVE",
"0 40 CURVE SMOOTH",
"0 0 LINE"
);
}
);
width = 200;
}
);
},
{
color = 2;
export = 0;
glyphname = _part.lowercase3;
lastChange = "2019-08-23 14:29:59 +0000";
layers = (
{
layerId = "B8B720EE-CA8B-4072-B286-8C23F1A5F625";
paths = (
{
closed = 1;
nodes = (
"0 120 LINE SMOOTH",
"0 87 OFFCURVE",
"0 -8 OFFCURVE",
"96 -8 CURVE SMOOTH",
"180 -8 OFFCURVE",
"180 65 OFFCURVE",
"180 100 CURVE",
"164 100 LINE",
"164 33 OFFCURVE",
"138 10 OFFCURVE",
"106 10 CURVE SMOOTH",
"60 10 OFFCURVE",
"60 71 OFFCURVE",
"60 110 CURVE SMOOTH",
"60 160 LINE",
"0 160 LINE"
);
}
);
width = 180;
}
);
},
{
export = 0;
glyphname = _part.mid;
lastChange = "2019-08-22 18:39:02 +0000";
layers = (
{
anchors = (
{
name = height;
position = "{80, 500}";
}
);
components = (
{
name = _part.lowercase1;
transform = "{-1, 0, 0, 1, 160, 340}";
},
{
name = _part.lowercase1;
transform = "{-1, 0, 0, -1, 160, 160}";
}
);
layerId = "B8B720EE-CA8B-4072-B286-8C23F1A5F625";
paths = (
{
closed = 1;
nodes = (
"60 140 LINE",
"60 360 LINE",
"0 360 LINE",
"0 140 LINE"
);
}
);
userData = {
PartSelection = {
height = 2;
};
};
width = 160;
},
{
anchors = (
{
name = height;
position = "{80, 320}";
}
);
associatedMasterId = "B8B720EE-CA8B-4072-B286-8C23F1A5F625";
components = (
{
name = _part.lowercase1;
transform = "{-1, 0, 0, 1, 160, 160}";
},
{
name = _part.lowercase1;
transform = "{-1, 0, 0, -1, 160, 160}";
}
);
layerId = "98FA0C9B-963D-4E92-AD2B-AAEB357B0E02";
name = short;
paths = (
{
closed = 1;
nodes = (
"60 130 LINE",
"60 190 LINE",
"0 190 LINE",
"0 130 LINE"
);
}
);
userData = {
PartSelection = {
height = 1;
};
};
visible = 1;
width = 160;
}
);
partsSettings = (
{
name = height;
bottomName = Low;
bottomValue = 60;
topName = High;
topValue = 100;
}
);
},
{
export = 0;
glyphname = _part.top;
lastChange = "2019-08-22 18:27:25 +0000";
layers = (
{
components = (
{
name = _part.lowercase1;
transform = "{1, 0, 0, 1, 0, 340}";
}
);
hints = (
{
origin = "{0, 3}";
type = Corner;
name = _corner.serif;
},
{
origin = "{0, 0}";
scale = "{-1, 1}";
type = Corner;
name = _corner.serif;
options = 1;
}
);
layerId = "B8B720EE-CA8B-4072-B286-8C23F1A5F625";
paths = (
{
closed = 1;
nodes = (
"160 0 LINE",
"160 360 LINE",
"100 360 LINE",
"100 0 LINE"
);
}
);
width = 160;
}
);
},
{
export = 0;
glyphname = _part.uppercase1;
lastChange = "2019-08-23 14:36:59 +0000";
layers = (
{
layerId = "B8B720EE-CA8B-4072-B286-8C23F1A5F625";
paths = (
{
closed = 1;
nodes = (
"168 0 LINE",
"168 24 LINE SMOOTH",
"168 74 OFFCURVE",
"168 168 OFFCURVE",
"64 168 CURVE SMOOTH",
"0 168 LINE",
"0 152 LINE",
"44 152 LINE SMOOTH",
"106 152 OFFCURVE",
"106 107 OFFCURVE",
"106 30 CURVE SMOOTH",
"106 0 LINE"
);
}
);
width = 168;
}
);
},
{
export = 0;
glyphname = _part.uppercase2;
lastChange = "2019-08-23 12:06:43 +0000";
layers = (
{
layerId = "B8B720EE-CA8B-4072-B286-8C23F1A5F625";
paths = (
{
closed = 1;
nodes = (
"62 0 LINE",
"62 50 LINE SMOOTH",
"62 89 OFFCURVE",
"62 152 OFFCURVE",
"104 152 CURVE SMOOTH",
"146 152 OFFCURVE",
"146 89 OFFCURVE",
"146 50 CURVE SMOOTH",
"146 0 LINE",
"208 0 LINE",
"208 40 LINE SMOOTH",
"208 73 OFFCURVE",
"208 168 OFFCURVE",
"104 168 CURVE SMOOTH",
"0 168 OFFCURVE",
"0 73 OFFCURVE",
"0 40 CURVE SMOOTH",
"0 0 LINE"
);
}
